<svg width="171" height="32" viewBox="0 0 171 32" fill="none" xmlns="http://www.w3.org/2000/svg">
<rect width="169" height="32" fill="#353FA8"/>
<path d="M49.9365 22.6718V10.6478H52.6691L52.9346 12.2705C53.3211 11.6879 53.8325 11.2265 54.4727 10.8785C55.109 10.5304 55.8468 10.3584 56.6861 10.3584C58.5404 10.3584 59.8559 11.0779 60.6289 12.5169C61.0661 11.856 61.6477 11.3281 62.3816 10.941C63.1155 10.5539 63.9197 10.3584 64.7902 10.3584C66.3556 10.3584 67.558 10.8276 68.3973 11.7622C69.2366 12.7006 69.6543 14.0731 69.6543 15.8836V22.6718H66.5586V16.1769C66.5586 15.1446 66.3595 14.3508 65.9653 13.8033C65.571 13.2559 64.962 12.9783 64.1383 12.9783C63.299 12.9783 62.6276 13.2872 62.1162 13.9011C61.6087 14.515 61.355 15.3714 61.355 16.4701V22.6757H58.2593V16.1769C58.2593 15.1446 58.0563 14.3508 57.6542 13.8033C57.2521 13.2559 56.6314 12.9783 55.7921 12.9783C54.9684 12.9783 54.3048 13.2872 53.7973 13.9011C53.2898 14.515 53.0361 15.3714 53.0361 16.4701V22.6757H49.9365V22.6718Z" fill="white"/>
<path d="M78.4374 22.9602C77.2272 22.9602 76.1537 22.7021 75.2207 22.186C74.2838 21.6698 73.5499 20.9425 73.019 20.004C72.4881 19.0656 72.2188 17.9863 72.2188 16.7546C72.2188 15.5111 72.4803 14.4045 73.0034 13.4348C73.5265 12.4651 74.2526 11.7104 75.1817 11.1668C76.1108 10.6272 77.2038 10.3535 78.4608 10.3535C79.6398 10.3535 80.6782 10.6116 81.5838 11.1277C82.4856 11.6439 83.1922 12.3517 83.6996 13.2471C84.2071 14.1426 84.4609 15.1436 84.4609 16.2385C84.4609 16.4183 84.457 16.6021 84.4492 16.7976C84.4414 16.9931 84.4296 17.1926 84.414 17.4037H75.291C75.3535 18.3422 75.6814 19.0773 76.2708 19.6091C76.8603 20.1409 77.5747 20.4107 78.414 20.4107C79.0425 20.4107 79.5695 20.2699 79.9989 19.9884C80.4244 19.7069 80.7445 19.3393 80.9553 18.8857H84.1017C83.8753 19.6443 83.5006 20.3364 82.9775 20.9581C82.4544 21.5799 81.8063 22.0687 81.0412 22.4245C80.2722 22.7842 79.4055 22.9602 78.4374 22.9602ZM78.4608 12.8795C77.7035 12.8795 77.0321 13.0946 76.4543 13.5208C75.8727 13.951 75.5018 14.6001 75.3417 15.472H81.3184C81.2715 14.6822 80.9787 14.0487 80.4478 13.5834C79.913 13.1142 79.2533 12.8795 78.4608 12.8795Z" fill="white"/>
<path d="M87.0767 22.6708V10.6468H89.8093L90.0513 12.684C90.4222 11.9724 90.957 11.4093 91.6597 10.987C92.3623 10.5686 93.186 10.3574 94.1385 10.3574C95.6219 10.3574 96.7775 10.8267 97.5972 11.7612C98.4209 12.6997 98.8308 14.0722 98.8308 15.8826V22.6708H95.7352V16.1759C95.7352 15.1436 95.5244 14.3498 95.1067 13.8024C94.689 13.2549 94.0331 12.9773 93.147 12.9773C92.2764 12.9773 91.5621 13.2862 91.0038 13.9001C90.4456 14.514 90.1684 15.3704 90.1684 16.4692V22.6747H87.0767V22.6708Z" fill="white"/>
<path d="M106.287 22.9599C104.788 22.9599 103.629 22.4907 102.817 21.5561C102.001 20.6177 101.595 19.2452 101.595 17.4347V10.6465H104.667V17.1414C104.667 18.1737 104.878 18.9675 105.295 19.515C105.713 20.0624 106.377 20.34 107.279 20.34C108.133 20.34 108.84 20.035 109.394 19.4172C109.953 18.8033 110.23 17.9469 110.23 16.8482V10.6465H113.325V22.6666H110.593L110.351 20.6294C109.98 21.3411 109.445 21.9041 108.742 22.3264C108.04 22.7487 107.224 22.9599 106.287 22.9599Z" fill="white"/>
<path d="M115.722 22.6705V20.1758L121.843 13.2194H115.792V10.6465H125.372V13.1412L119.154 20.0976H125.493V22.6666H115.722V22.6705Z" fill="white"/>
<path d="M132.224 22.9602C131.193 22.9602 130.346 22.796 129.682 22.4636C129.023 22.1312 128.531 21.6933 128.207 21.1419C127.883 20.5945 127.723 19.9884 127.723 19.3237C127.723 18.2092 128.16 17.306 129.03 16.6099C129.901 15.9139 131.209 15.5659 132.95 15.5659H135.999V15.2765C135.999 14.4515 135.764 13.8454 135.296 13.4583C134.827 13.0711 134.246 12.8756 133.555 12.8756C132.926 12.8756 132.376 13.0242 131.911 13.3253C131.443 13.6264 131.154 14.0644 131.041 14.647H128.015C128.097 13.775 128.39 13.0164 128.898 12.3673C129.405 11.7221 130.061 11.2255 130.869 10.8775C131.677 10.5295 132.579 10.3574 133.578 10.3574C135.288 10.3574 136.635 10.7876 137.619 11.6439C138.602 12.5002 139.094 13.7124 139.094 15.2804V22.6708H136.455L136.166 20.7313C135.811 21.3765 135.315 21.9122 134.679 22.3306C134.043 22.749 133.227 22.9602 132.224 22.9602ZM132.926 20.5358C133.812 20.5358 134.503 20.2465 134.995 19.6638C135.487 19.0812 135.799 18.3617 135.928 17.5054H133.289C132.466 17.5054 131.876 17.654 131.525 17.9551C131.17 18.2562 130.994 18.6198 130.994 19.0578C130.994 19.527 131.17 19.8906 131.525 20.1487C131.88 20.4068 132.345 20.5358 132.926 20.5358Z" fill="white"/>
<path d="M142.049 28.0005V10.6468H144.809L145.149 12.3673C145.535 11.8355 146.047 11.3663 146.687 10.9635C147.323 10.5608 148.151 10.3574 149.166 10.3574C150.294 10.3574 151.301 10.6311 152.191 11.1825C153.077 11.7338 153.78 12.4846 154.295 13.4348C154.811 14.3889 155.068 15.472 155.068 16.6842C155.068 17.8964 154.811 18.9756 154.295 19.918C153.78 20.8643 153.077 21.6072 152.191 22.1469C151.305 22.6865 150.294 22.9602 149.166 22.9602C148.264 22.9602 147.472 22.7921 146.796 22.4519C146.117 22.1117 145.57 21.6346 145.153 21.0207V28.0005H142.049ZM148.51 20.2465C149.494 20.2465 150.31 19.9141 150.954 19.2533C151.598 18.5924 151.922 17.7361 151.922 16.6842C151.922 15.6324 151.598 14.7682 150.954 14.0917C150.31 13.4113 149.494 13.0751 148.51 13.0751C147.511 13.0751 146.691 13.4113 146.055 14.08C145.418 14.7526 145.098 15.6128 145.098 16.6608C145.098 17.7126 145.418 18.5729 146.055 19.2415C146.691 19.9102 147.511 20.2465 148.51 20.2465Z" fill="white"/>
<path d="M157.824 28.0005V10.6468H160.584L160.924 12.3673C161.31 11.8355 161.822 11.3663 162.462 10.9635C163.098 10.5608 163.926 10.3574 164.941 10.3574C166.069 10.3574 167.076 10.6311 167.966 11.1825C168.852 11.7338 169.555 12.4846 170.07 13.4348C170.586 14.3889 170.843 15.472 170.843 16.6842C170.843 17.8964 170.586 18.9756 170.07 19.918C169.555 20.8643 168.852 21.6072 167.966 22.1469C167.08 22.6865 166.069 22.9602 164.941 22.9602C164.039 22.9602 163.247 22.7921 162.571 22.4519C161.892 22.1117 161.345 21.6346 160.928 21.0207V28.0005H157.824ZM164.285 20.2465C165.269 20.2465 166.085 19.9141 166.729 19.2533C167.373 18.5924 167.697 17.7361 167.697 16.6842C167.697 15.6324 167.373 14.7682 166.729 14.0917C166.085 13.4113 165.269 13.0751 164.285 13.0751C163.286 13.0751 162.466 13.4113 161.829 14.08C161.193 14.7526 160.873 15.6128 160.873 16.6608C160.873 17.7126 161.193 18.5729 161.829 19.2415C162.466 19.9102 163.286 20.2465 164.285 20.2465Z" fill="white"/>
<path d="M35.5318 13.4267C33.9274 12.6446 17.6137 4.69506 16.8173 4.31185C15.8765 3.85826 14.8186 3.90128 13.9793 4.42916C13.2337 4.89839 12.7886 5.68436 12.7886 6.52897V8.57404C8.51014 6.48987 4.41122 4.49564 4.02866 4.31185C3.09176 3.85826 2.02994 3.90128 1.19064 4.42916C0.445026 4.89839 0 5.68045 0 6.52897V24.7938C0 25.6384 0.4177 26.3853 1.14379 26.8506C1.60834 27.1478 2.15096 27.2964 2.69748 27.2964C3.1308 27.2964 3.56801 27.2025 3.9701 27.0148C4.57908 26.7294 8.60774 24.7704 12.7847 22.7331V24.7938C12.7847 25.6384 13.2024 26.3853 13.9285 26.8506C14.3931 27.1478 14.9357 27.2964 15.4822 27.2964C15.9155 27.2964 16.3528 27.2025 16.7548 27.0148C18.0548 26.4048 34.6925 18.2871 35.5357 17.8648C36.4297 17.4191 36.984 16.5666 36.9801 15.636C36.984 14.7092 36.4258 13.8646 35.5318 13.4267ZM2.81459 24.5318C2.78727 24.5436 2.75994 24.5514 2.73262 24.5514V6.74013C2.76385 6.74404 2.79898 6.75577 2.84192 6.77532C3.25962 6.97865 8.10806 9.33654 12.7847 11.6162V19.687C8.18614 21.9276 3.39625 24.2581 2.81459 24.5318ZM15.5174 12.9496C17.9455 14.1305 20.0457 15.155 21.0568 15.6477C20.0886 16.1248 17.9728 17.1571 15.5174 18.3536V12.9496ZM15.5993 24.5318C15.572 24.5436 15.5447 24.5514 15.5174 24.5553V21.3997C19.1869 19.6088 22.3957 18.0408 22.7549 17.8648C23.6488 17.4191 24.2032 16.5666 24.1993 15.636C24.1954 14.7132 23.6371 13.8685 22.7432 13.4306C22.0873 13.1099 18.9995 11.6045 15.5134 9.90744V6.74013C15.5447 6.74404 15.5798 6.75577 15.6228 6.77532C16.3684 7.13506 30.6209 14.0797 33.8337 15.6477C30.8083 17.1375 16.6338 24.047 15.5993 24.5318Z" fill="white"/>
</svg>
