<svg width="24" height="24" viewBox="0 0 24 24" fill="none" xmlns="http://www.w3.org/2000/svg">
<path fill-rule="evenodd" clip-rule="evenodd" d="M2 6C2 5.44772 2.44772 5 3 5H7C7.55228 5 8 5.44772 8 6V18C8 18.5523 7.55228 19 7 19H3C2.44772 19 2 18.5523 2 18V6ZM4 7V17H6V7H4Z" fill="#353FA8"/>
<path fill-rule="evenodd" clip-rule="evenodd" d="M9 6C9 5.44772 9.44772 5 10 5H14C14.5523 5 15 5.44772 15 6V18C15 18.5523 14.5523 19 14 19H10C9.44772 19 9 18.5523 9 18V6ZM11 7V17H13V7H11Z" fill="#353FA8"/>
<path fill-rule="evenodd" clip-rule="evenodd" d="M16 6C16 5.44772 16.4477 5 17 5H21C21.5523 5 22 5.44772 22 6V14C22 14.5523 21.5523 15 21 15H17C16.4477 15 16 14.5523 16 14V6ZM18 7V13H20V7H18Z" fill="#353FA8"/>
</svg>
