<svg width="24" height="24" viewBox="0 0 24 24" fill="none" xmlns="http://www.w3.org/2000/svg">
<path d="M23.4986 6.62335C23.2227 5.59073 22.4093 4.77758 21.3766 4.50159C19.505 4 12 4 12 4C12 4 4.49501 4 2.62335 4.50159C1.59073 4.77758 0.777395 5.59073 0.5014 6.62335C-1.35652e-07 8.49501 0 12.4001 0 12.4001C0 12.4001 -1.35652e-07 16.3052 0.5014 18.1767C0.777395 19.2093 1.59073 20.0226 2.62335 20.2986C4.49501 20.8002 12 20.8002 12 20.8002C12 20.8002 19.505 20.8002 21.3766 20.2986C22.4093 20.0226 23.2227 19.2093 23.4986 18.1767C24 16.3052 24 12.4001 24 12.4001C24 12.4001 24 8.49501 23.4986 6.62335ZM9.59999 16.0002V8.80002L15.8353 12.4001L9.59999 16.0002Z" fill="white"/>
</svg>
