<svg width="290" height="136" viewBox="0 0 290 136" fill="none" xmlns="http://www.w3.org/2000/svg">
<path d="M115.274 12.6726L27.4478 1.27112L11.2661 124.247L99.0928 135.649L115.274 12.6726Z" fill="#E4C189"/>
<path d="M36.9232 32.2239L98.0998 40.1664M34.8458 48.0221L96.0194 55.9646M32.7654 63.8204L93.9391 71.7629M30.6851 79.6187L91.8617 87.5611M28.6077 95.4169L89.7813 103.359M26.5273 111.215L87.701 119.158" stroke="#1A1A1A" stroke-miterlimit="10"/>
<path d="M89.349 3.81213H0.77832V127.83H89.349V3.81213Z" fill="#FFE8BA"/>
<path d="M14.2136 33.2856H75.9111M14.2136 49.2185H75.9111M14.2136 65.1513H75.9111M14.2136 81.0842H75.9111M14.2136 97.017H75.9111M14.2136 112.95H75.9111" stroke="#1A1A1A" stroke-miterlimit="10"/>
<path d="M27.9636 19.3095V11.734H29.6197L32.0494 16.539L34.4464 11.734H36.1025V19.3095H34.7079V14.0824L32.5833 18.2273H31.4828L29.3582 14.0824V19.3095H27.9636Z" fill="#1A1A1A"/>
<path d="M37.5822 19.3095V11.734H42.5614V12.8487H38.9768V14.9265H42.2346V16.0087H38.9768V18.1948H42.5614V19.3095H37.5822Z" fill="#1A1A1A"/>
<path d="M43.8811 19.3095V11.734H45.2757L48.8603 17.0693V11.734H50.2549V19.3095H48.8603L45.2757 13.985V19.3095H43.8811Z" fill="#1A1A1A"/>
<path d="M54.6752 19.4393C54.1159 19.4393 53.6111 19.3311 53.1608 19.1147C52.7104 18.891 52.3509 18.5555 52.0821 18.1082C51.8206 17.6609 51.6899 17.0945 51.6899 16.4091V11.734H53.0845V16.42C53.0845 17.0116 53.2261 17.4517 53.5094 17.7403C53.8 18.0289 54.1995 18.1731 54.7079 18.1731C55.2091 18.1731 55.605 18.0289 55.8955 17.7403C56.1861 17.4517 56.3313 17.0116 56.3313 16.42V11.734H57.726V16.4091C57.726 17.0945 57.5879 17.6609 57.3119 18.1082C57.0359 18.5555 56.6655 18.891 56.2006 19.1147C55.743 19.3311 55.2345 19.4393 54.6752 19.4393Z" fill="#1A1A1A"/>
<path d="M115.707 70.3215C116.743 70.3215 117.583 69.4874 117.583 68.4585C117.583 67.4296 116.743 66.5955 115.707 66.5955C114.671 66.5955 113.831 67.4296 113.831 68.4585C113.831 69.4874 114.671 70.3215 115.707 70.3215Z" fill="#141974"/>
<path d="M123.78 70.3215C124.816 70.3215 125.656 69.4874 125.656 68.4585C125.656 67.4296 124.816 66.5955 123.78 66.5955C122.744 66.5955 121.904 67.4296 121.904 68.4585C121.904 69.4874 122.744 70.3215 123.78 70.3215Z" fill="#141974"/>
<path d="M131.849 70.3215C132.884 70.3215 133.724 69.4874 133.724 68.4585C133.724 67.4296 132.884 66.5955 131.849 66.5955C130.813 66.5955 129.973 67.4296 129.973 68.4585C129.973 69.4874 130.813 70.3215 131.849 70.3215Z" fill="#141974"/>
<path d="M283.475 110.282H133.116C129.943 110.282 127.369 107.725 127.369 104.574V103.814H289.222V104.574C289.219 107.728 286.648 110.282 283.475 110.282Z" fill="#B3B3B3"/>
<path d="M270.074 17.3585H146.516C142.467 17.3585 139.182 20.618 139.182 24.6431V103.817H277.405V24.6401C277.405 20.6181 274.123 17.3585 270.074 17.3585Z" fill="#B3B3B3"/>
<path d="M268.78 101.248H147.808C146.104 101.248 144.722 99.8754 144.722 98.1828V26.1202C144.722 24.4276 146.104 23.0551 147.808 23.0551H268.78C270.484 23.0551 271.866 24.4276 271.866 26.1202V98.1858C271.866 99.8754 270.484 101.248 268.78 101.248Z" fill="#141974"/>
<path d="M257.167 29.655H211.248V93.9516H257.167V29.655Z" fill="#E4C189"/>
<path d="M218.215 44.9359H250.201M218.215 53.1954H250.201M218.215 61.4549H250.201M218.215 69.7173H250.201M218.215 77.9768H250.201M218.215 86.2363H250.201" stroke="#1A1A1A" stroke-miterlimit="10"/>
<path d="M206.435 29.655H160.517V93.9516H206.435V29.655Z" fill="#FFE8BA"/>
<path d="M225.342 37.4929V33.5654H226.2L227.46 36.0565L228.703 33.5654H229.561V37.4929H228.838V34.7829L227.737 36.9318H227.166L226.065 34.7829V37.4929H225.342Z" fill="#1A1A1A"/>
<path d="M230.328 37.4929V33.5654H232.91V34.1433H231.051V35.2206H232.74V35.7816H231.051V36.915H232.91V37.4929H230.328Z" fill="#1A1A1A"/>
<path d="M233.594 37.4929V33.5654H234.317L236.175 36.3315V33.5654H236.898V37.4929H236.175L234.317 34.7324V37.4929H233.594Z" fill="#1A1A1A"/>
<path d="M239.19 37.5602C238.9 37.5602 238.638 37.5041 238.405 37.3919C238.171 37.2759 237.985 37.102 237.846 36.8701C237.71 36.6382 237.642 36.3446 237.642 35.9892V33.5654H238.365V35.9948C238.365 36.3015 238.439 36.5297 238.586 36.6793C238.736 36.8289 238.943 36.9037 239.207 36.9037C239.467 36.9037 239.672 36.8289 239.823 36.6793C239.973 36.5297 240.049 36.3015 240.049 35.9948V33.5654H240.772V35.9892C240.772 36.3446 240.7 36.6382 240.557 36.8701C240.414 37.102 240.222 37.2759 239.981 37.3919C239.744 37.5041 239.48 37.5602 239.19 37.5602Z" fill="#1A1A1A"/>
<path d="M174.611 37.4914V33.564H175.469L176.729 36.0551L177.972 33.564H178.83V37.4914H178.107V34.7815L177.006 36.9303H176.435L175.334 34.7815V37.4914H174.611Z" fill="#1A1A1A"/>
<path d="M179.598 37.4914V33.564H182.179V34.1419H180.321V35.2191H182.009V35.7802H180.321V36.9135H182.179V37.4914H179.598Z" fill="#1A1A1A"/>
<path d="M182.863 37.4914V33.564H183.586L185.445 36.33V33.564H186.168V37.4914H185.445L183.586 34.731V37.4914H182.863Z" fill="#1A1A1A"/>
<path d="M188.459 37.5587C188.169 37.5587 187.908 37.5026 187.674 37.3904C187.441 37.2745 187.254 37.1005 187.115 36.8686C186.979 36.6367 186.912 36.3431 186.912 35.9878V33.564H187.635V35.9934C187.635 36.3001 187.708 36.5282 187.855 36.6779C188.005 36.8275 188.213 36.9023 188.476 36.9023C188.736 36.9023 188.941 36.8275 189.092 36.6779C189.243 36.5282 189.318 36.3001 189.318 35.9934V33.564H190.041V35.9878C190.041 36.3431 189.969 36.6367 189.826 36.8686C189.683 37.1005 189.491 37.2745 189.25 37.3904C189.013 37.5026 188.749 37.5587 188.459 37.5587Z" fill="#1A1A1A"/>
<path d="M167.484 44.9359H199.469M167.484 53.1954H199.469M167.484 61.4549H199.469M167.484 69.7173H199.469M167.484 77.9768H199.469M167.484 86.2363H199.469" stroke="#1A1A1A" stroke-miterlimit="10"/>
</svg>
