<svg width="203" height="202" viewBox="0 0 203 202" fill="none" xmlns="http://www.w3.org/2000/svg">
<path d="M90.0368 56.2018C92.4031 56.0498 94.8986 55.9757 97.5195 55.9757C100.217 55.9757 102.789 56.0517 105.206 56.2278H105.233C108.033 56.3798 110.654 56.656 113.073 56.9582C113.2 56.9841 113.327 56.9841 113.455 56.9841C114.932 56.9841 116.152 55.9516 116.152 54.6651C116.152 53.5306 115.185 52.5481 113.861 52.372C113.148 52.296 112.41 52.1959 111.673 52.1198C112.97 50.8852 114.065 49.5487 114.982 48.0619H115.009C120.762 48.4902 144.307 50.9093 161.972 70.4184C172.611 82.1899 176.329 94.8419 177.754 101.447C180.655 101.497 183.024 101.221 184.703 100.917C187.045 100.513 188.267 100.286 189.692 99.48C190.43 99.0258 193.18 97.4631 193.891 94.4136C194.069 93.6073 194.629 91.1881 193.077 89.8515C191.779 88.717 189.437 88.7671 188.647 89.7755C187.782 90.834 189.08 92.4968 188.011 93.6573C187.552 94.1615 186.815 94.3636 186.204 94.3135C185.186 94.2375 184.576 93.4812 184.448 93.331C183.252 91.8944 183.786 88.971 185.212 87.2562C187.249 84.8371 191.347 84.4088 194.222 86.0457C198.015 88.1627 198.042 92.8509 198.042 93.5071C198.015 97.439 195.344 100.036 194.275 101.043C191.017 104.194 186.944 104.824 183.711 105.353C181.344 105.731 179.308 105.731 177.907 105.655C177.22 109.965 175.642 116.392 171.722 123.323C166.86 131.917 160.648 137.262 156.831 140.085C155.279 150.924 153.725 161.761 152.173 172.624H129.489L128.903 145.554C124.983 147.873 115.997 152.535 103.626 152.737C90.6452 152.939 81.15 148.125 77.2298 145.832C77.2298 154.376 77.2298 162.922 77.2298 171.466L53.8623 172.624L47.7537 144.117C44.2922 143.109 38.513 140.992 32.8125 136.227C25.5844 130.178 22.3251 123.145 20.9771 119.618C16.0386 119.618 11.1 119.618 6.16327 119.618L4.7124 92.2707L17.2105 91.6905C19.603 86.2218 23.9051 78.3062 31.4403 70.5945C36.5829 65.3261 41.8004 61.6464 45.9995 59.1512L46.535 59.1252C45.5671 43.498 47.4766 32.2307 51.3706 31.4002C54.935 30.6439 60.6112 38.6596 65.7277 50.7573C67.1523 50.203 68.7305 49.6729 70.4884 49.2446C74.2045 48.2862 77.5649 48.0341 80.2626 48.0601C81.178 49.5468 82.2994 50.9075 83.5968 52.118C82.833 52.194 82.0954 52.2941 81.3821 52.3701C80.0585 52.5462 79.1169 53.5287 79.1169 54.6632C79.1169 56.0739 80.5677 57.1584 82.1965 56.9563C84.6152 56.656 87.2361 56.378 90.0368 56.2018ZM42.7421 86.574C42.7421 84.0029 41.0872 81.9118 39.026 81.9118C36.9892 81.9118 35.3342 84.0047 35.3342 86.574C35.3342 89.1193 36.9892 91.2122 39.026 91.2122C41.0872 91.2122 42.7421 89.1193 42.7421 86.574Z" fill="#141974"/>
<path d="M118.037 37.449C118.037 41.3308 116.941 44.9846 115.007 48.06H114.981C114.066 49.5467 112.971 50.8833 111.671 52.1179C109.812 53.8568 107.65 55.2434 105.231 56.2259H105.205C102.786 56.0498 100.216 55.9738 97.5184 55.9738C94.8975 55.9738 92.402 56.0498 90.0357 56.1999C87.6169 55.2675 85.4547 53.8568 83.5957 52.1161C82.2983 50.9056 81.1769 49.5449 80.2615 48.0582C78.3276 44.9828 77.2324 41.329 77.2324 37.4472C77.2324 26.2819 86.3458 17.2318 97.6214 17.2318C108.899 17.2337 118.037 26.2838 118.037 37.449Z" fill="#FFBF42"/>
<path d="M113.861 52.37C115.185 52.5461 116.153 53.5286 116.153 54.6632C116.153 55.9478 114.93 56.9822 113.455 56.9822C113.328 56.9822 113.201 56.9822 113.073 56.9563C110.655 56.6541 108.034 56.376 105.233 56.2259C107.652 55.2434 109.814 53.8568 111.673 52.1179C112.411 52.1939 113.148 52.294 113.861 52.37Z" fill="white"/>
<path d="M90.0371 56.2018C87.2365 56.3779 84.6155 56.6559 82.1968 56.9581C80.5681 57.1602 79.1172 56.0757 79.1172 54.665C79.1172 53.5305 80.0589 52.548 81.3824 52.3719C82.0957 52.2959 82.8333 52.1958 83.5971 52.1198C85.4542 53.8567 87.6184 55.2693 90.0371 56.2018Z" fill="white"/>
<path d="M39.0257 81.9117C41.0869 81.9117 42.7419 84.0047 42.7419 86.574C42.7419 89.1192 41.0869 91.2122 39.0257 91.2122C36.9889 91.2122 35.334 89.1192 35.334 86.574C35.334 84.0028 36.9889 81.9117 39.0257 81.9117Z" fill="#FFBF42"/>
</svg>
