<svg width="213" height="212" viewBox="0 0 213 212" fill="none" xmlns="http://www.w3.org/2000/svg">
<g clip-path="url(#clip0)">
<path d="M199.354 57.0104H13.3909V185.993H199.354V57.0104Z" fill="#FFE8BA"/>
<path d="M199.165 34.6113H14.9712V45.1327H199.165V34.6113Z" fill="#FFE8BA"/>
<path d="M203.565 26.0085H10.5691V34.6113H203.565V26.0085Z" fill="#E4C189"/>
<path d="M75.2309 83.2681H25.8337V185.991H75.2309V83.2681Z" fill="#E4C189"/>
<path d="M70.847 87.765H30.5542V185.993H70.847V87.765Z" fill="#CBDAEF"/>
<path d="M72.6843 136.879H30.0845V141.483H72.6843V136.879Z" fill="#E4C189"/>
<path d="M193.553 81.1567H85.9473V166.299H193.553V81.1567Z" fill="#E4C189"/>
<path d="M189.286 84.5951H90.0618V162.843H189.286V84.5951Z" fill="#CBDAEF"/>
<path d="M200.539 43.7589H14.1476L5.19849 63.4376C5.19849 70.3533 10.86 75.9613 17.846 75.9613C24.83 75.9613 30.4935 70.3553 30.4935 63.4376C30.4935 70.3533 36.155 75.9613 43.141 75.9613C50.125 75.9613 55.7884 70.3553 55.7884 63.4376C55.7884 70.3533 61.4499 75.9613 68.4359 75.9613C75.42 75.9613 81.0834 70.3553 81.0834 63.4376C81.0834 70.3533 86.7449 75.9613 93.7309 75.9613C100.715 75.9613 106.378 70.3553 106.378 63.4376C106.378 70.3533 112.04 75.9613 119.026 75.9613C126.012 75.9613 131.673 70.3553 131.673 63.4376C131.673 70.3533 137.335 75.9613 144.321 75.9613C151.307 75.9613 156.968 70.3553 156.968 63.4376C156.968 70.3533 162.63 75.9613 169.616 75.9613C176.6 75.9613 182.263 70.3553 182.263 63.4376C182.263 70.3533 187.925 75.9613 194.911 75.9613C201.895 75.9613 207.558 70.3553 207.558 63.4376L200.539 43.7589Z" fill="#141974"/>
<path d="M63.8336 111.562L36.7288 116.793L38.5791 126.194L65.684 120.963L63.8336 111.562Z" fill="#141974"/>
<path d="M42.5622 123.138C42.0158 123.243 41.5136 123.217 41.0558 123.06C40.6032 122.901 40.2188 122.635 39.9024 122.263C39.5902 121.885 39.3799 121.42 39.2713 120.869C39.1628 120.317 39.182 119.811 39.3288 119.349C39.4798 118.881 39.7349 118.49 40.0942 118.174C40.4587 117.858 40.9142 117.647 41.4606 117.541C42.0019 117.437 42.5014 117.464 42.9592 117.621C43.417 117.779 43.802 118.047 44.1141 118.425C44.4253 118.799 44.6351 119.261 44.7437 119.812C44.8522 120.364 44.8336 120.873 44.6878 121.34C44.5409 121.801 44.2853 122.19 43.9208 122.507C43.5563 122.823 43.1035 123.034 42.5622 123.138ZM42.3872 122.249C42.9077 122.149 43.2879 121.899 43.528 121.499C43.7734 121.099 43.8377 120.602 43.721 120.01C43.6044 119.417 43.3565 118.981 42.9772 118.701C42.6032 118.42 42.156 118.33 41.6356 118.43C41.1152 118.531 40.7323 118.781 40.487 119.182C40.2417 119.582 40.1773 120.079 40.294 120.671C40.4106 121.264 40.6586 121.7 41.0378 121.98C41.417 122.26 41.8668 122.35 42.3872 122.249Z" fill="white"/>
<path d="M46.1585 122.348L45.0934 116.937L47.1153 116.546C47.5524 116.462 47.9283 116.464 48.243 116.553C48.5576 116.642 48.81 116.8 49.0003 117.025C49.1905 117.25 49.3165 117.52 49.3784 117.835C49.4372 118.134 49.4239 118.422 49.3382 118.701C49.2516 118.974 49.0804 119.216 48.8246 119.426C48.5678 119.631 48.2156 119.776 47.768 119.863L46.7454 120.06L47.1577 122.155L46.1585 122.348ZM46.5871 119.256L47.5473 119.071C47.896 119.003 48.1311 118.88 48.2526 118.702C48.3783 118.517 48.4153 118.293 48.3636 118.031C48.3108 117.763 48.1917 117.569 48.0061 117.45C47.8248 117.324 47.5598 117.295 47.2111 117.362L46.2509 117.548L46.5871 119.256Z" fill="white"/>
<path d="M50.9003 121.433L49.8352 116.021L53.4028 115.333L53.5595 116.129L50.9912 116.625L51.2833 118.109L53.6174 117.658L53.7696 118.431L51.4355 118.882L51.7428 120.443L54.3111 119.948L54.4678 120.744L50.9003 121.433Z" fill="white"/>
<path d="M55.4134 120.561L54.3483 115.15L55.3476 114.958L58.666 118.273L57.9159 114.462L58.9151 114.269L59.9802 119.68L58.981 119.873L55.664 116.565L56.4126 120.369L55.4134 120.561Z" fill="white"/>
<path d="M59.6026 113.221C59.3629 113.182 46.9984 101.291 46.9984 101.291L41.4626 117.399" stroke="#141974" stroke-width="0.5" stroke-miterlimit="10"/>
<path d="M46.9436 102.402C47.5633 102.402 48.0657 101.905 48.0657 101.291C48.0657 100.677 47.5633 100.18 46.9436 100.18C46.3239 100.18 45.8215 100.677 45.8215 101.291C45.8215 101.905 46.3239 102.402 46.9436 102.402Z" fill="#4D4D4D"/>
<g clip-path="url(#clip1)">
<path opacity="0.59" d="M183.568 172.329L200.124 165.69L136.746 75.3995L120.19 82.0382L183.568 172.329Z" fill="#DFE9F3"/>
<path opacity="0.59" d="M204.681 166.004L210.678 162.542L149.472 74.0227L143.476 77.4844L204.681 166.004Z" fill="#DFE9F3"/>
<path opacity="0.59" d="M204.576 134.993L206.429 133.93L167.835 72.3785L165.982 73.4414L204.576 134.993Z" fill="#DFE9F3"/>
<path opacity="0.59" d="M206.238 130.716L207.159 130.18L169.927 67.8599L169.004 68.3981L206.238 130.716Z" fill="#DFE9F3"/>
</g>
</g>
<defs>
<clipPath id="clip0">
<rect width="212.233" height="210.155" fill="white" transform="translate(0.255859 0.922241)"/>
</clipPath>
<clipPath id="clip1">
<rect width="69.278" height="78.4" fill="white" transform="translate(120.118 84.7666)"/>
</clipPath>
</defs>
</svg>
