<svg width="432" height="240" viewBox="0 0 432 240" fill="none" xmlns="http://www.w3.org/2000/svg">
<g clip-path="url(#clip0)">
<path d="M308.354 71.0104H122.391V199.993H308.354V71.0104Z" fill="#FFE8BA"/>
<path d="M308.165 48.6113H123.971V59.1327H308.165V48.6113Z" fill="#FFE8BA"/>
<path d="M312.565 40.0085H119.569V48.6113H312.565V40.0085Z" fill="#E4C189"/>
<path d="M184.231 97.2681H134.834V199.991H184.231V97.2681Z" fill="#E4C189"/>
<path d="M179.847 101.765H139.554V199.993H179.847V101.765Z" fill="#CBDAEF"/>
<path d="M181.684 150.879H139.084V155.483H181.684V150.879Z" fill="#E4C189"/>
<path d="M302.553 95.1567H194.947V180.299H302.553V95.1567Z" fill="#E4C189"/>
<path d="M298.286 98.5951H199.062V176.843H298.286V98.5951Z" fill="#CBDAEF"/>
<path d="M309.539 57.7589H123.148L114.198 77.4376C114.198 84.3533 119.86 89.9613 126.846 89.9613C133.83 89.9613 139.493 84.3553 139.493 77.4376C139.493 84.3533 145.155 89.9613 152.141 89.9613C159.125 89.9613 164.788 84.3553 164.788 77.4376C164.788 84.3533 170.45 89.9613 177.436 89.9613C184.42 89.9613 190.083 84.3553 190.083 77.4376C190.083 84.3533 195.745 89.9613 202.731 89.9613C209.715 89.9613 215.378 84.3553 215.378 77.4376C215.378 84.3533 221.04 89.9613 228.026 89.9613C235.012 89.9613 240.673 84.3553 240.673 77.4376C240.673 84.3533 246.335 89.9613 253.321 89.9613C260.307 89.9613 265.968 84.3553 265.968 77.4376C265.968 84.3533 271.63 89.9613 278.616 89.9613C285.6 89.9613 291.263 84.3553 291.263 77.4376C291.263 84.3533 296.925 89.9613 303.911 89.9613C310.895 89.9613 316.558 84.3553 316.558 77.4376L309.539 57.7589Z" fill="#141974"/>
<path d="M172.834 125.562L145.729 130.793L147.579 140.194L174.684 134.963L172.834 125.562Z" fill="#141974"/>
<path d="M151.562 137.138C151.016 137.243 150.514 137.217 150.056 137.06C149.603 136.901 149.219 136.635 148.902 136.263C148.59 135.885 148.38 135.42 148.271 134.869C148.163 134.317 148.182 133.811 148.329 133.349C148.48 132.881 148.735 132.49 149.094 132.174C149.459 131.858 149.914 131.647 150.461 131.541C151.002 131.437 151.501 131.464 151.959 131.621C152.417 131.779 152.802 132.047 153.114 132.425C153.425 132.799 153.635 133.261 153.744 133.812C153.852 134.364 153.834 134.873 153.688 135.34C153.541 135.801 153.285 136.19 152.921 136.507C152.556 136.823 152.103 137.034 151.562 137.138ZM151.387 136.249C151.908 136.149 152.288 135.899 152.528 135.499C152.773 135.099 152.838 134.602 152.721 134.01C152.604 133.417 152.356 132.981 151.977 132.701C151.603 132.42 151.156 132.33 150.636 132.43C150.115 132.531 149.732 132.781 149.487 133.182C149.242 133.582 149.177 134.079 149.294 134.671C149.411 135.264 149.659 135.7 150.038 135.98C150.417 136.26 150.867 136.35 151.387 136.249Z" fill="white"/>
<path d="M155.158 136.348L154.093 130.937L156.115 130.546C156.552 130.462 156.928 130.464 157.243 130.553C157.558 130.642 157.81 130.8 158 131.025C158.19 131.25 158.317 131.52 158.378 131.835C158.437 132.134 158.424 132.422 158.338 132.701C158.252 132.974 158.08 133.216 157.825 133.426C157.568 133.631 157.216 133.776 156.768 133.863L155.745 134.06L156.158 136.155L155.158 136.348ZM155.587 133.256L156.547 133.071C156.896 133.003 157.131 132.88 157.253 132.702C157.378 132.517 157.415 132.293 157.364 132.031C157.311 131.763 157.192 131.569 157.006 131.45C156.825 131.324 156.56 131.295 156.211 131.362L155.251 131.548L155.587 133.256Z" fill="white"/>
<path d="M159.9 135.433L158.835 130.021L162.403 129.333L162.559 130.129L159.991 130.625L160.283 132.109L162.617 131.658L162.77 132.431L160.435 132.882L160.743 134.443L163.311 133.948L163.468 134.744L159.9 135.433Z" fill="white"/>
<path d="M164.413 134.561L163.348 129.15L164.348 128.958L167.666 132.273L166.916 128.462L167.915 128.269L168.98 133.68L167.981 133.873L164.664 130.565L165.413 134.369L164.413 134.561Z" fill="white"/>
<path d="M168.603 127.221C168.363 127.182 155.998 115.291 155.998 115.291L150.463 131.399" stroke="#141974" stroke-width="0.5" stroke-miterlimit="10"/>
<path d="M155.944 116.402C156.563 116.402 157.066 115.905 157.066 115.291C157.066 114.677 156.563 114.18 155.944 114.18C155.324 114.18 154.822 114.677 154.822 115.291C154.822 115.905 155.324 116.402 155.944 116.402Z" fill="#4D4D4D"/>
<g clip-path="url(#clip1)">
<path opacity="0.59" d="M292.568 186.329L309.124 179.69L245.746 89.3995L229.19 96.0382L292.568 186.329Z" fill="#DFE9F3"/>
<path opacity="0.59" d="M313.681 180.004L319.678 176.542L258.472 88.0227L252.476 91.4844L313.681 180.004Z" fill="#DFE9F3"/>
<path opacity="0.59" d="M313.576 148.993L315.429 147.93L276.835 86.3785L274.982 87.4414L313.576 148.993Z" fill="#DFE9F3"/>
<path opacity="0.59" d="M315.238 144.716L316.159 144.18L278.927 81.8599L278.004 82.3981L315.238 144.716Z" fill="#DFE9F3"/>
</g>
</g>
<defs>
<clipPath id="clip0">
<rect width="212.233" height="210.155" fill="white" transform="translate(109.256 14.9222)"/>
</clipPath>
<clipPath id="clip1">
<rect width="69.278" height="78.4" fill="white" transform="translate(229.118 98.7666)"/>
</clipPath>
</defs>
</svg>
