<svg width="432" height="240" viewBox="0 0 432 240" fill="none" xmlns="http://www.w3.org/2000/svg">
<path d="M186.274 64.6726L98.4478 53.2711L82.2661 176.247L170.093 187.649L186.274 64.6726Z" fill="#E4C189"/>
<path d="M107.923 84.2239L169.1 92.1664M105.846 100.022L167.019 107.965M103.765 115.82L164.939 123.763M101.685 131.619L162.862 139.561M99.6077 147.417L160.781 155.359M97.5273 163.215L158.701 171.158" stroke="#1A1A1A" stroke-miterlimit="10"/>
<path d="M160.349 55.8121H71.7783V179.83H160.349V55.8121Z" fill="#FFE8BA"/>
<path d="M85.2136 85.2856H146.911M85.2136 101.218H146.911M85.2136 117.151H146.911M85.2136 133.084H146.911M85.2136 149.017H146.911M85.2136 164.95H146.911" stroke="#1A1A1A" stroke-miterlimit="10"/>
<path d="M98.9636 71.3095V63.734H100.62L103.049 68.539L105.446 63.734H107.102V71.3095H105.708V66.0824L103.583 70.2273H102.483L100.358 66.0824V71.3095H98.9636Z" fill="#1A1A1A"/>
<path d="M108.582 71.3095V63.734H113.561V64.8487H109.977V66.9265H113.235V68.0087H109.977V70.1948H113.561V71.3095H108.582Z" fill="#1A1A1A"/>
<path d="M114.881 71.3095V63.734H116.276L119.86 69.0693V63.734H121.255V71.3095H119.86L116.276 65.985V71.3095H114.881Z" fill="#1A1A1A"/>
<path d="M125.675 71.4393C125.116 71.4393 124.611 71.3311 124.161 71.1147C123.71 70.891 123.351 70.5555 123.082 70.1082C122.821 69.6609 122.69 69.0945 122.69 68.4091V63.734H124.085V68.42C124.085 69.0116 124.226 69.4517 124.509 69.7403C124.8 70.0289 125.199 70.1731 125.708 70.1731C126.209 70.1731 126.605 70.0289 126.896 69.7403C127.186 69.4517 127.331 69.0116 127.331 68.42V63.734H128.726V68.4091C128.726 69.0945 128.588 69.6609 128.312 70.1082C128.036 70.5555 127.665 70.891 127.201 71.1147C126.743 71.3311 126.235 71.4393 125.675 71.4393Z" fill="#1A1A1A"/>
<path d="M186.707 122.321C187.743 122.321 188.583 121.487 188.583 120.458C188.583 119.43 187.743 118.595 186.707 118.595C185.671 118.595 184.831 119.43 184.831 120.458C184.831 121.487 185.671 122.321 186.707 122.321Z" fill="#141974"/>
<path d="M194.78 122.321C195.816 122.321 196.656 121.487 196.656 120.458C196.656 119.43 195.816 118.595 194.78 118.595C193.744 118.595 192.904 119.43 192.904 120.458C192.904 121.487 193.744 122.321 194.78 122.321Z" fill="#141974"/>
<path d="M202.849 122.321C203.884 122.321 204.724 121.487 204.724 120.458C204.724 119.43 203.884 118.595 202.849 118.595C201.813 118.595 200.973 119.43 200.973 120.458C200.973 121.487 201.813 122.321 202.849 122.321Z" fill="#141974"/>
<path d="M354.475 162.282H204.116C200.943 162.282 198.369 159.725 198.369 156.574V155.814H360.222V156.574C360.219 159.728 357.648 162.282 354.475 162.282Z" fill="#B3B3B3"/>
<path d="M341.074 69.3585H217.516C213.467 69.3585 210.182 72.618 210.182 76.6431V155.817H348.405V76.6401C348.405 72.6181 345.123 69.3585 341.074 69.3585Z" fill="#B3B3B3"/>
<path d="M339.78 153.248H218.808C217.104 153.248 215.722 151.875 215.722 150.183V78.1202C215.722 76.4276 217.104 75.0551 218.808 75.0551H339.78C341.484 75.0551 342.866 76.4276 342.866 78.1202V150.186C342.866 151.875 341.484 153.248 339.78 153.248Z" fill="#141974"/>
<path d="M328.167 81.655H282.248V145.952H328.167V81.655Z" fill="#E4C189"/>
<path d="M289.215 96.9359H321.201M289.215 105.195H321.201M289.215 113.455H321.201M289.215 121.717H321.201M289.215 129.977H321.201M289.215 138.236H321.201" stroke="#1A1A1A" stroke-miterlimit="10"/>
<path d="M277.435 81.655H231.517V145.952H277.435V81.655Z" fill="#FFE8BA"/>
<path d="M296.342 89.4929V85.5654H297.2L298.46 88.0565L299.703 85.5654H300.561V89.4929H299.838V86.7829L298.737 88.9318H298.166L297.065 86.7829V89.4929H296.342Z" fill="#1A1A1A"/>
<path d="M301.328 89.4929V85.5654H303.91V86.1433H302.051V87.2206H303.74V87.7816H302.051V88.915H303.91V89.4929H301.328Z" fill="#1A1A1A"/>
<path d="M304.594 89.4929V85.5654H305.317L307.175 88.3315V85.5654H307.898V89.4929H307.175L305.317 86.7324V89.4929H304.594Z" fill="#1A1A1A"/>
<path d="M310.19 89.5602C309.9 89.5602 309.638 89.5041 309.405 89.3919C309.171 89.2759 308.985 89.102 308.846 88.8701C308.71 88.6382 308.642 88.3446 308.642 87.9892V85.5654H309.365V87.9948C309.365 88.3015 309.439 88.5297 309.586 88.6793C309.736 88.8289 309.943 88.9037 310.207 88.9037C310.467 88.9037 310.672 88.8289 310.823 88.6793C310.973 88.5297 311.049 88.3015 311.049 87.9948V85.5654H311.772V87.9892C311.772 88.3446 311.7 88.6382 311.557 88.8701C311.414 89.102 311.222 89.2759 310.981 89.3919C310.744 89.5041 310.48 89.5602 310.19 89.5602Z" fill="#1A1A1A"/>
<path d="M245.611 89.4914V85.564H246.469L247.729 88.0551L248.972 85.564H249.83V89.4914H249.107V86.7815L248.006 88.9303H247.435L246.334 86.7815V89.4914H245.611Z" fill="#1A1A1A"/>
<path d="M250.598 89.4914V85.564H253.179V86.1419H251.321V87.2191H253.009V87.7802H251.321V88.9135H253.179V89.4914H250.598Z" fill="#1A1A1A"/>
<path d="M253.863 89.4914V85.564H254.586L256.445 88.33V85.564H257.168V89.4914H256.445L254.586 86.731V89.4914H253.863Z" fill="#1A1A1A"/>
<path d="M259.459 89.5587C259.169 89.5587 258.908 89.5026 258.674 89.3904C258.441 89.2745 258.254 89.1005 258.115 88.8686C257.979 88.6367 257.912 88.3431 257.912 87.9878V85.564H258.635V87.9934C258.635 88.3001 258.708 88.5282 258.855 88.6779C259.005 88.8275 259.213 88.9023 259.476 88.9023C259.736 88.9023 259.941 88.8275 260.092 88.6779C260.243 88.5282 260.318 88.3001 260.318 87.9934V85.564H261.041V87.9878C261.041 88.3431 260.969 88.6367 260.826 88.8686C260.683 89.1005 260.491 89.2745 260.25 89.3904C260.013 89.5026 259.749 89.5587 259.459 89.5587Z" fill="#1A1A1A"/>
<path d="M238.484 96.9359H270.469M238.484 105.195H270.469M238.484 113.455H270.469M238.484 121.717H270.469M238.484 129.977H270.469M238.484 138.236H270.469" stroke="#1A1A1A" stroke-miterlimit="10"/>
</svg>
