<svg width="432" height="240" viewBox="0 0 432 240" fill="none" xmlns="http://www.w3.org/2000/svg">
<g clip-path="url(#clip0)">
<path d="M432 0H0V239.488H432V0Z" fill="#CADAEE"/>
<path d="M378.643 0.0933383C380.233 6.14159 381.613 11.057 382.561 14.3783C386.8 29.2124 389.062 36.5881 390.029 39.9814C392.143 47.3944 392.767 49.7828 393.326 53.3414C394.578 61.3355 394.287 67.5037 394.138 69.7455C393.844 74.2503 393.55 78.9045 391.522 84.7341C390.564 87.4957 388.404 93.5173 383.106 99.4189C381.743 100.938 381.235 101.264 373.454 107.402C361.976 116.46 360.556 117.742 358.849 117.161C354.791 115.778 358.814 107.149 352.585 99.9067C347.461 93.9465 341.613 93.6506 338.008 88.0741C337.247 86.8959 337.241 84.2117 335.035 82.7643C333.029 81.4475 330.769 81.8526 330.413 80.7997C330.086 79.8401 331.663 78.6033 332.881 77.601C335.621 75.3432 340.092 71.6594 341.534 69.0178C342.722 66.84 342.895 64.7048 339.531 57.3104C336.515 50.6864 334.46 42.8309 330.345 27.1225C329.284 23.0708 329.082 21.762 328.499 19.323C328.102 17.657 327.775 16.4735 327.411 15.1433C326.312 11.1556 324.359 4.04642 323.242 -0.0106201C341.712 0.0266983 360.178 0.0613511 378.643 0.0933383Z" fill="#FAFAFA"/>
<path d="M124.889 0.09375C120.029 6.30993 114.705 13.7043 109.715 21.877C104.477 30.4576 106.156 29.1675 102.43 34.7386C99.3768 39.3074 97.179 41.7704 98.1807 43.2205C99.6225 45.3023 106.796 41.2 110.017 44.3161C112.423 46.6431 111.997 52.5927 109.591 56.218C108.208 58.2998 106.71 58.8063 106.264 61.0854C106.159 61.6238 106.008 62.8073 107.309 66.7951C108.603 70.7508 109.091 70.6255 109.588 72.6461C110.355 75.7621 109.758 78.3664 108.905 82.0983C108.028 85.9287 107.59 87.8427 106.626 89.0742C102.908 93.8189 95.1945 88.3065 77.7525 89.2581C73.77 89.474 64.8411 89.9805 56.7222 88.1439C55.6368 87.8986 54.546 87.5388 53.2662 87.0057C50.5176 85.8594 45.5658 83.7963 42.342 79.3447C39.4287 75.3197 38.805 70.5642 42.342 53.8962C44.4399 44.0148 46.4919 34.576 52.0539 19.6912C55.1211 11.4812 58.0749 4.77721 60.2484 0.0990812H124.889V0.09375Z" fill="#FAFAFA"/>
<path d="M322.093 105.419H116.782C121.386 100.397 122.096 96.5721 121.823 93.9465C121.367 89.5482 118.108 87.9862 117.144 81.6874C116.699 78.7792 117.263 78.2434 117.333 73.8132C117.433 67.4344 116.183 64.9074 115.543 58.7899C114.768 51.3875 115.74 51.862 115.314 40.8077C114.787 27.1252 113.318 26.8693 114.636 21.6741C115.832 16.9506 117.652 14.7835 117.93 9.30301C118.13 5.41123 117.433 2.16187 116.785 -0.0319214C185.222 -0.0319214 253.659 -0.0319214 322.096 -0.0319214C322.26 2.2605 322.485 5.68579 322.69 9.84679C323.243 21.2023 323.527 26.9893 322.908 33.6986C322.063 42.8656 320.724 40.885 319.839 50.2466C318.891 60.2693 319.83 68.8472 320.53 73.5227C321.186 77.9022 324.377 81.3489 322.62 84.4223C321.378 86.5921 319.255 86.4455 317.868 88.1808C316.14 90.3346 315.937 94.9194 322.093 105.419Z" fill="#FAFAFA"/>
<path d="M330.939 183.972C330.755 179.915 330.655 176.57 330.202 171.113C329.24 159.518 328.101 155.482 326.206 141.24C324.418 127.819 323.527 121.107 323.622 118.478C323.681 116.831 324.413 98.1185 320.827 94.6399C320.59 94.4107 319.483 93.4191 319.321 91.937C319.167 90.5162 319.958 89.3887 320.233 88.9462C321.964 86.158 320.711 82.3195 319.799 76.3485C318.843 70.0844 319.68 70.7641 318.835 65.0517C317.566 56.4525 315.708 55.1623 314.183 47.624C312.517 39.39 314.617 40.3523 313.162 30.3269C311.788 20.8507 309.603 17.8813 309.736 9.75651C309.803 5.57951 310.448 2.19953 310.945 0.0963745C285.306 0.0963745 259.664 0.0963745 234.025 0.0963745C224.3 0.0963745 214.577 0.0963745 204.851 0.0963745C179.212 0.0963745 153.57 0.0963745 127.931 0.0963745C128.428 2.2022 129.073 5.58218 129.141 9.75651C129.273 17.8813 127.089 20.8507 125.714 30.3269C124.259 40.3523 126.36 39.3927 124.694 47.624C123.168 55.1597 121.311 56.4525 120.042 65.0517C119.199 70.7641 120.036 70.0844 119.078 76.3485C118.165 82.3222 116.912 86.1606 118.643 88.9462C118.916 89.3887 119.71 90.5162 119.556 91.937C119.394 93.4217 118.287 94.4107 118.049 94.6399C114.464 98.1185 115.195 116.831 115.255 118.478C115.349 121.107 114.455 127.816 112.671 141.24C110.775 155.48 109.636 159.515 108.675 171.113C108.224 176.57 108.124 179.915 107.938 183.972C107.498 193.627 106.561 207.571 104.352 225.667H199.416H239.46H334.524C332.316 207.571 331.379 193.624 330.939 183.972Z" fill="#141974"/>
<path d="M272.349 56.308H171.377C168.272 56.308 165.753 53.8236 165.753 50.7555V-0.0961304H277.973V50.7582C277.973 53.8236 275.456 56.308 272.349 56.308Z" fill="#353FA8"/>
<path d="M273.934 0.467085C273.934 7.84014 273.934 15.2132 273.934 22.5836C273.934 39.2116 259.87 52.6915 242.52 52.6915H201.207C183.857 52.6915 169.793 39.2116 169.793 22.5836C169.793 15.0239 169.793 7.73085 169.793 0.171204" stroke="#141974" stroke-width="0.25" stroke-miterlimit="10" stroke-linecap="round" stroke-linejoin="round" stroke-dasharray="2 2"/>
<path d="M432 216.132H0V239.904H432V216.132Z" fill="#C3996B"/>
<path d="M118.498 88.6762C151.313 90.5821 186.035 91.667 222.488 91.603C256.705 91.5444 289.386 90.4755 320.379 88.6762C319.113 90.926 319.234 92.0562 319.602 92.6746C319.888 93.1544 320.571 93.7462 321.289 95.1216C321.4 95.3349 321.484 95.5108 321.535 95.6254C291.014 97.2088 258.954 98.0884 225.48 98.0324C187.842 97.9685 151.972 96.729 118.047 94.6391C118.503 94.2233 118.784 93.7995 118.946 93.5089C119.021 93.373 119.405 92.6693 119.499 91.6617C119.524 91.4031 119.534 91.2725 119.518 91.0992C119.453 90.4941 119.148 90.2276 118.786 89.4279C118.711 89.2626 118.603 89.0067 118.498 88.6762Z" fill="#353FA8"/>
<path d="M129.89 63.3322C139.194 63.3322 146.735 69.6256 146.735 77.3905C146.735 85.1554 139.194 91.4489 129.89 91.4489C125.912 91.4489 122.259 90.3 119.378 88.3755" fill="#353FA8"/>
<path d="M188.576 69.9935C193.285 78.8912 190.58 89.4684 182.531 93.6187C174.485 97.769 164.144 93.9199 159.435 85.0221C157.424 81.2183 156.765 77.1106 157.299 73.3255" fill="#141974"/>
<path d="M260.83 68.5808C265.538 77.4786 262.833 88.0557 254.784 92.206C246.736 96.3563 236.397 92.5072 231.689 83.6094C229.677 79.8056 229.018 75.698 229.553 71.9128" fill="#353FA8"/>
<path d="M302.833 58.206C308.439 68.7991 301.194 83.4652 286.652 90.9636C272.11 98.4646 255.78 95.9562 250.175 85.3658C247.78 80.8396 247.732 75.5671 249.595 70.4304" fill="#141974"/>
<path d="M305.937 66.2217C311.542 76.8148 310.103 88.4874 302.721 92.2939C295.339 96.1004 284.812 90.6012 279.207 80.0082C276.812 75.482 275.702 70.7585 275.794 66.5336" fill="#353FA8"/>
<path d="M320.479 88.4262C315.128 92.8591 305.219 92.7258 296.333 87.6158C291.862 85.0462 288.377 81.6289 286.176 78.009" fill="#141974"/>
<path d="M153.017 64.894C168.137 64.894 180.393 71.1875 180.393 78.9524C180.393 86.7173 168.137 93.0108 153.017 93.0108C146.556 93.0108 140.616 91.8619 135.935 89.9374" fill="#141974"/>
<path d="M194.989 65.8003C210.109 65.8003 222.365 72.0938 222.365 79.8587C222.365 87.6236 210.109 93.9171 194.989 93.9171C188.528 93.9171 182.588 92.7682 177.906 90.8436" fill="#141974"/>
<path d="M221.68 67.1706C236.8 67.1706 249.055 73.4641 249.055 81.229C249.055 88.9939 236.8 95.2873 221.68 95.2873C215.219 95.2873 209.279 94.1385 204.597 92.2139" fill="#141974"/>
<path d="M126.288 109.929C146.967 116.641 174.866 123.369 208.284 125.075C254.676 127.445 292.67 119.163 317.545 111.595C309.237 111.07 300.875 110.598 292.454 110.188C234.928 107.373 179.467 107.501 126.288 109.929Z" fill="#4D4D4D"/>
<path d="M198.585 122.175C198.783 121.525 210.825 86.1788 210.825 86.1788L209.434 125.694" stroke="#808080" stroke-width="5" stroke-miterlimit="10"/>
<path d="M219.072 123.719C218.875 122.181 218.284 88.3035 219.072 89.5457C219.86 90.7878 231.114 122.181 231.311 123.719" stroke="#808080" stroke-width="5" stroke-miterlimit="10"/>
<path d="M214.592 91.0569V121.165" stroke="#808080" stroke-width="5" stroke-miterlimit="10"/>
<path d="M223.293 97.1958H205.891C205.297 97.1958 204.814 96.7187 204.814 96.1322V16.8653C204.814 16.2788 205.297 15.8017 205.891 15.8017H223.293C223.887 15.8017 224.37 16.2788 224.37 16.8653V96.1322C224.37 96.7187 223.887 97.1958 223.293 97.1958Z" fill="#F2F2F2"/>
<path d="M115.234 43.5426C116.268 43.1188 117.262 43.3613 117.734 43.468C122.44 44.5289 136.642 44.6275 165.043 44.8274C175.441 44.8994 180.825 44.4756 184.311 40.7544C185.458 39.5309 186.53 37.8062 189.624 34.6875C194.122 30.1586 196.285 29.3829 197.959 29.1617C198.766 29.0551 201.434 28.7005 202.957 30.2119C204.099 31.3448 203.61 32.5443 204.736 33.5386C205.9 34.5649 207.506 34.261 210.05 34.0317C213.106 33.7545 216.19 33.9544 219.259 33.8798C224.573 33.7465 225.864 33.8345 227.486 34.197C229.773 34.7061 232.309 35.3086 233.181 37.2624C233.632 38.2727 233.772 39.9387 233.297 41.4128C232.94 42.519 232.422 42.9322 232.568 43.8598C232.692 44.6408 233.208 45.2779 233.794 46.0029C234.371 46.7173 234.52 46.6933 234.965 47.2318C235.311 47.6503 236.348 48.9031 236.291 50.4038C236.242 51.7233 235.373 52.7149 234.79 53.3787C233.791 54.5195 233.108 54.5622 232.797 55.5111C232.508 56.3988 232.816 57.2411 232.965 57.6436C233.534 59.1977 234.528 59.1124 235.119 60.4798C235.657 61.7273 235.459 63.2627 234.757 64.2516C234.409 64.7394 234.244 64.6675 233.464 65.3499C232.525 66.1682 231.137 67.3757 230.972 68.9564C230.837 70.2546 231.582 71.4514 231.968 72.0725C232.624 73.1254 233.162 73.3227 233.437 74.3436C233.672 75.2179 233.521 75.9856 233.44 76.3695C233.44 76.3695 233.197 77.5317 232.403 78.5446C230.556 80.901 222.594 79.7521 222.591 79.7521C217.081 78.9578 211.454 79.4775 205.894 79.123C200.227 78.7605 195.418 79.1523 185.801 79.944C168.486 81.3675 167.095 83.2414 142.442 86.5227C118.946 89.6495 122.999 87.5756 114.567 89.6175C108.878 90.9956 104.266 92.6083 102.606 90.6011C100.125 87.5996 108.435 81.3888 107.091 70.929C106.599 67.1118 105.122 64.8941 106.259 61.0929C107.142 58.1448 108.554 57.7449 110.908 53.7145C113.816 48.7458 112.604 44.6195 115.234 43.5426Z" fill="#E4B494"/>
<path d="M130.707 113.293C134.017 111.574 137.457 111.11 144.323 111.212C148.865 111.278 148.765 111.523 154.003 111.617C159.889 111.721 159.711 111.494 163.966 111.617C169.671 111.779 172.681 111.867 176.748 112.731C179.863 113.392 180.803 113.917 183.892 114.232C185.085 114.354 187.78 114.613 191.222 114.232C193.425 113.986 193.617 113.736 196.863 113.288C197.988 113.131 200.157 112.832 202.503 112.731C203.645 112.683 205.276 112.662 211.337 113.288C217.76 113.952 217.31 114.114 220.02 114.232C222.556 114.341 222.394 114.173 228.066 114.232C232.1 114.274 232.327 114.36 233.707 114.232C237.789 113.85 237.862 112.902 240.851 112.731C244.274 112.536 244.609 113.76 249.874 114.232C251.335 114.362 253.468 114.544 256.079 114.232C260.528 113.701 260.526 112.435 265.478 111.43C269.951 110.524 273.856 110.764 275.441 110.873C277.101 110.988 276.828 111.073 278.824 111.243C282.704 111.579 284.315 111.307 290.48 111.243C295.553 111.19 296.611 111.353 297.802 111.726C299.052 112.118 302.7 113.261 303.261 115.511C304.02 118.553 298.777 122.194 296.87 123.492C285.879 130.969 273.918 130.593 258.522 132.584C242.765 134.623 246.375 136.172 232.581 137.78C220.442 139.195 220.485 137.662 180.322 136.108C172.463 135.804 167.692 135.679 161.336 133.509C152.048 130.34 152.847 127.408 141.785 123.303C133.531 120.24 127.675 118.009 127.875 115.695C127.959 114.743 129.071 114.144 130.707 113.293Z" fill="#C55E28"/>
<path d="M110.867 38.779C108.372 39.7839 107.432 41.8897 107.168 42.4868C106.131 44.8112 107.141 46.0508 107.03 48.7323C106.887 52.2216 105.081 52.5148 103.974 56.4013C102.386 61.9617 104.333 67.4955 105.124 69.7453C106.223 72.8694 107.3 74.0422 106.744 76.3373C106.19 78.6164 104.816 78.755 103.312 81.8338C102.745 82.996 100.99 86.5839 102.34 90.1718C102.707 91.1474 103.355 92.8694 105.237 93.7224C108.096 95.0178 112.295 93.6291 114.045 91.3047C114.863 90.2171 114.9 88.8283 114.946 86.0907C115.014 82.0337 114.352 81.0874 114.487 77.7314C114.633 74.1702 115.411 74.474 115.281 72.1337C115.044 67.7701 112.384 67.4102 111.858 63.3478C111.485 60.4823 112.473 58.0779 114.042 54.2635C115.702 50.2251 116.693 49.9772 117.428 46.9171C117.922 44.8646 118.94 40.6316 116.364 38.9309C114.811 37.8993 112.468 38.1339 110.867 38.779Z" fill="#E6E7E8"/>
<path d="M251.326 208.29V215.943C243.253 216.972 234.029 217.686 223.861 217.691C213.604 217.697 204.308 216.98 196.175 215.943V209.551C154.207 197.494 123.03 156.681 126.289 109.929C153.885 114.303 186.631 117.577 223.48 117.555C258.977 117.534 290.627 114.461 317.476 110.318C320.402 155.591 291.078 194.922 251.326 208.29Z" fill="#B3B3B3"/>
<path d="M251.326 215.943C238.919 217.51 224.755 218.243 209.222 217.209C204.707 216.908 200.355 216.476 196.175 215.943V209.551C154.207 197.494 123.03 156.681 126.289 109.929C127.738 110.153 129.188 110.377 130.636 110.604C130.768 120.448 132.434 137.937 142.575 156.412C157.031 182.74 179.616 194.519 186.385 197.934C192.374 200.954 197.08 202.572 204.348 205.07C223.545 211.67 240.04 214.549 251.326 215.943Z" fill="#808080"/>
<path d="M307.59 151.193C312.701 148.024 315.258 146.438 318.627 144.15C338.499 130.657 348.43 123.9 351.554 122.81C353.009 122.303 357.764 120.752 358.855 117.167C359.289 115.738 359.011 114.408 358.898 113.88C358.247 110.902 356.111 110.084 353.725 107.171C350.676 103.447 352.124 102.295 349.378 99.219C347.22 96.8013 346.316 97.4997 341.653 94.3383C337.884 91.782 335.381 89.8335 332.594 86.744C331.452 85.4779 330.899 84.6968 329.708 84.3556C326.762 83.5133 323.509 86.3895 322.102 87.6637C313.519 95.4392 309.229 99.3283 304.919 103.74C297.613 111.222 291.106 116.684 287.356 119.829C283.838 122.78 280.857 125.118 278.837 126.669C282.763 136.391 291.749 156.612 299.641 155.621C300.221 155.543 300.896 155.343 307.59 151.193Z" fill="#E4B494"/>
<path d="M364.764 118.776C365.72 116.289 364.797 114.176 364.537 113.581C363.522 111.249 361.916 111.134 360.004 109.228C357.515 106.749 358.527 105.246 356.405 101.797C353.365 96.8625 347.94 94.5008 345.737 93.5412C342.673 92.2057 341.072 92.187 339.751 90.2225C338.439 88.2713 339.273 87.1837 338.018 84.001C337.545 82.8015 336.079 79.0909 332.502 77.6222C331.53 77.2224 329.813 76.5186 327.898 77.297C324.993 78.4779 323.16 82.4576 323.692 85.3045C323.94 86.6346 324.945 87.6102 326.94 89.5081C329.899 92.3203 331.052 92.4856 333.444 94.8713C335.985 97.401 335.229 97.7555 337.051 99.2589C340.445 102.058 342.524 100.384 345.894 102.769C348.27 104.451 349.377 106.803 351.137 110.534C353 114.482 352.509 115.367 354.272 117.982C355.457 119.736 357.901 123.353 360.914 122.652C362.728 122.223 364.151 120.37 364.764 118.776Z" fill="#E6E7E8"/>
<path d="M289.606 117.931C279.875 124.777 273.956 125.872 270.271 125.451C269.215 125.331 264.828 124.697 259.374 124.641C257.557 124.622 255.391 124.665 255.056 124.673C254.144 124.691 251.846 124.742 248.242 124.939C241.06 125.331 239.491 125.707 238.438 126.011C238.419 126.016 237.401 126.347 235.36 127.01C230.208 128.687 230.049 128.743 229.455 128.839C227.797 129.106 227.303 128.98 226.696 129.497C225.802 130.257 225.672 132.056 226.428 133.221C227.068 134.21 228.17 134.466 229.414 134.754C230.764 135.069 232.006 134.994 234.431 134.831C237.263 134.642 238.678 134.549 239.153 134.509C241.27 134.327 242.585 134.181 244.983 134.005C248.15 133.77 248.925 133.8 249.867 134.226C250.315 134.429 252.178 135.34 252.343 136.878C252.448 137.867 251.803 138.68 251.325 139.256C248.239 142.972 245.161 145.278 245.161 145.278C241.864 147.749 240.214 148.983 239.34 149.495C236.586 151.107 234.377 151.904 230.578 153.277C227.141 154.517 227.157 154.306 223.018 155.775C218.174 157.492 219.289 157.377 215.474 158.683C215.474 158.683 213.393 159.397 208.77 161.698C208.171 161.996 207.088 162.554 206.624 163.708C206.548 163.894 206.089 165.091 206.724 166.179C207.21 167.013 208.06 167.306 208.587 167.48C209.969 167.935 211.216 167.656 211.929 167.485C215.356 166.672 217.067 166.267 217.858 166.013C221.161 164.966 220.567 165.48 225.718 164.054C228.561 163.268 231.369 162.383 232.6 161.996C234.423 161.423 236.299 161.021 238.108 160.405C238.108 160.405 239.953 159.776 242.806 159.453C243.625 159.36 244.543 159.296 245.05 159.856C245.504 160.357 245.401 161.106 245.382 161.218C245.137 162.764 243.009 163.66 242.015 164.1C238.54 165.64 235.552 168.082 232.279 170.004C231.669 170.364 228.888 172 225.367 174.277C221.495 176.78 223.488 175.687 220.145 177.883C219.092 178.574 217.516 179.576 215.966 181.349C215.272 182.143 214.659 183.001 214.546 184.156C214.505 184.569 214.408 185.566 215.045 186.197C215.248 186.397 215.782 186.816 217.432 186.653C219.67 186.435 221.277 185.419 221.387 185.35C222.367 184.731 224.87 183.468 229.876 180.941C232.098 179.819 234.62 178.603 237.887 176.801C237.99 176.745 238.084 176.692 238.2 176.625C239.812 175.706 241.567 174.647 244.332 173.221C247.753 171.457 246.298 172.44 248.571 171.267C248.871 171.113 250.018 170.404 251.592 170.185C252.378 170.076 252.81 170.151 253.056 170.414C253.199 170.569 253.396 170.91 253.188 171.774C252.742 173.618 251.117 174.959 249.475 176.457C248.439 177.406 247.418 178.371 246.387 179.328C243.895 181.642 243.838 181.802 241.834 183.657C239.747 185.59 237.255 187.802 237.255 187.802C234.995 189.809 233.853 190.764 233.405 192.491C233.281 192.973 232.946 194.256 233.648 195.095C234.126 195.666 234.866 195.775 235.174 195.815C237.301 196.1 239.305 194.399 241.505 192.622C243.363 191.123 245.293 189.721 247.162 188.237C251.841 184.523 252.462 184.31 255.912 181.399C257.289 180.237 258.639 179.04 259.976 177.833C261.85 176.137 263.275 174.781 264.401 175.199C264.79 175.343 265.003 175.65 265.044 175.708C266.299 177.574 262.249 182.865 259.654 186.256C258.283 188.05 256.223 190.588 256.72 192.515C256.768 192.707 256.914 193.272 257.408 193.61C258.302 194.229 259.679 193.642 260.324 193.357C262.411 192.438 263.605 190.828 264.261 189.948C265.214 188.671 266.056 187.759 267.266 186.144C268.37 184.673 269.175 183.54 269.388 183.236C271.678 180.008 272.806 178.185 274.124 176.311C276.824 172.47 278.174 170.55 279.41 169.228C282.086 166.365 284.462 164.766 288.596 162.13C293.261 159.152 295.03 158.64 300.773 155.372C304.744 153.112 307.879 151.094 309.901 149.745" fill="#E4B494"/>
<path d="M233.926 90.1689C233.623 90.0703 233.977 87.6046 235.022 85.0217C235.921 82.8039 237.15 79.7731 239.412 79.4692C240.387 79.3386 241.734 79.6878 242.293 80.6874C242.717 81.4471 242.614 82.4547 242.155 83.1264C241.642 83.8755 240.94 83.8435 239.55 84.4806C239.55 84.4806 237.952 85.2136 236.531 86.5117C234.582 88.2977 234.199 90.2596 233.926 90.1689Z" fill="#C55E28"/>
<path d="M233.07 100.16C232.889 99.9974 233.917 98.3767 235.47 96.8893C236.804 95.6125 238.624 93.8665 240.308 94.3517C241.035 94.5596 241.869 95.2233 241.942 96.095C241.999 96.7587 241.607 97.4331 241.072 97.761C240.476 98.1288 239.992 97.8889 238.815 97.9049C238.815 97.9049 237.463 97.9236 236.056 98.398C234.123 99.0511 233.232 100.307 233.07 100.16Z" fill="#C55E28"/>
<path d="M200.617 94.8819C200.836 94.7726 200.28 92.9413 199.186 91.0994C198.246 89.516 196.961 87.3569 195.206 87.3809C194.45 87.3915 193.467 87.81 193.16 88.6337C192.925 89.2601 193.122 90.0118 193.548 90.4703C194.024 90.9821 194.556 90.8781 195.684 91.2034C195.684 91.2034 196.983 91.5792 198.211 92.4029C199.902 93.5358 200.42 94.9805 200.617 94.8819Z" fill="#C55E28"/>
</g>
<defs>
<clipPath id="clip0">
<rect width="432" height="240" fill="white"/>
</clipPath>
</defs>
</svg>
