<svg width="432" height="352" viewBox="0 0 432 352" fill="none" xmlns="http://www.w3.org/2000/svg">
<g clip-path="url(#clip0)">
<path d="M308.354 71.0104H122.391V199.993H308.354V71.0104Z" fill="#FFE8BA"/>
<path d="M308.165 48.6113H123.971V59.1327H308.165V48.6113Z" fill="#FFE8BA"/>
<path d="M312.565 40.0085H119.569V48.6113H312.565V40.0085Z" fill="#E4C189"/>
<path d="M184.231 97.2681H134.834V199.991H184.231V97.2681Z" fill="#E4C189"/>
<path d="M179.847 101.765H139.554V199.993H179.847V101.765Z" fill="#CBDAEF"/>
<path d="M181.684 150.879H139.084V155.483H181.684V150.879Z" fill="#E4C189"/>
<path d="M302.553 95.1567H194.947V180.299H302.553V95.1567Z" fill="#E4C189"/>
<path d="M298.286 98.5951H199.062V176.843H298.286V98.5951Z" fill="#CBDAEF"/>
<path d="M309.539 57.7589H123.148L114.198 77.4376C114.198 84.3533 119.86 89.9613 126.846 89.9613C133.83 89.9613 139.493 84.3553 139.493 77.4376C139.493 84.3533 145.155 89.9613 152.141 89.9613C159.125 89.9613 164.788 84.3553 164.788 77.4376C164.788 84.3533 170.45 89.9613 177.436 89.9613C184.42 89.9613 190.083 84.3553 190.083 77.4376C190.083 84.3533 195.745 89.9613 202.731 89.9613C209.715 89.9613 215.378 84.3553 215.378 77.4376C215.378 84.3533 221.04 89.9613 228.026 89.9613C235.012 89.9613 240.673 84.3553 240.673 77.4376C240.673 84.3533 246.335 89.9613 253.321 89.9613C260.307 89.9613 265.968 84.3553 265.968 77.4376C265.968 84.3533 271.63 89.9613 278.616 89.9613C285.6 89.9613 291.263 84.3553 291.263 77.4376C291.263 84.3533 296.925 89.9613 303.911 89.9613C310.895 89.9613 316.558 84.3553 316.558 77.4376L309.539 57.7589Z" fill="#141974"/>
<path d="M172.834 125.562L145.729 130.793L147.579 140.194L174.684 134.963L172.834 125.562Z" fill="#141974"/>
<path d="M151.562 137.138C151.016 137.243 150.514 137.217 150.056 137.06C149.603 136.901 149.219 136.635 148.902 136.263C148.59 135.885 148.38 135.42 148.271 134.869C148.163 134.317 148.182 133.811 148.329 133.349C148.48 132.881 148.735 132.49 149.094 132.174C149.459 131.858 149.914 131.647 150.461 131.541C151.002 131.437 151.501 131.464 151.959 131.621C152.417 131.779 152.802 132.047 153.114 132.425C153.425 132.799 153.635 133.261 153.744 133.812C153.852 134.364 153.834 134.873 153.688 135.34C153.541 135.801 153.285 136.19 152.921 136.507C152.556 136.823 152.103 137.034 151.562 137.138ZM151.387 136.249C151.908 136.149 152.288 135.899 152.528 135.499C152.773 135.099 152.838 134.602 152.721 134.01C152.604 133.417 152.356 132.981 151.977 132.701C151.603 132.42 151.156 132.33 150.636 132.43C150.115 132.531 149.732 132.781 149.487 133.182C149.242 133.582 149.177 134.079 149.294 134.671C149.411 135.264 149.659 135.7 150.038 135.98C150.417 136.26 150.867 136.35 151.387 136.249Z" fill="white"/>
<path d="M155.158 136.348L154.093 130.937L156.115 130.546C156.552 130.462 156.928 130.464 157.243 130.553C157.558 130.642 157.81 130.8 158 131.025C158.19 131.25 158.317 131.52 158.378 131.835C158.437 132.134 158.424 132.422 158.338 132.701C158.252 132.974 158.08 133.216 157.825 133.426C157.568 133.631 157.216 133.776 156.768 133.863L155.745 134.06L156.158 136.155L155.158 136.348ZM155.587 133.256L156.547 133.071C156.896 133.003 157.131 132.88 157.253 132.702C157.378 132.517 157.415 132.293 157.364 132.031C157.311 131.763 157.192 131.569 157.006 131.45C156.825 131.324 156.56 131.295 156.211 131.362L155.251 131.548L155.587 133.256Z" fill="white"/>
<path d="M159.9 135.433L158.835 130.021L162.403 129.333L162.559 130.129L159.991 130.625L160.283 132.109L162.617 131.658L162.77 132.431L160.435 132.882L160.743 134.443L163.311 133.948L163.468 134.744L159.9 135.433Z" fill="white"/>
<path d="M164.413 134.561L163.348 129.15L164.348 128.958L167.666 132.273L166.916 128.462L167.915 128.269L168.98 133.68L167.981 133.873L164.664 130.565L165.413 134.369L164.413 134.561Z" fill="white"/>
<path d="M168.603 127.221C168.363 127.182 155.998 115.291 155.998 115.291L150.463 131.399" stroke="#141974" stroke-width="0.5" stroke-miterlimit="10"/>
<path d="M155.944 116.402C156.563 116.402 157.066 115.905 157.066 115.291C157.066 114.677 156.563 114.18 155.944 114.18C155.324 114.18 154.822 114.677 154.822 115.291C154.822 115.905 155.324 116.402 155.944 116.402Z" fill="#4D4D4D"/>
<g clip-path="url(#clip1)">
<path opacity="0.59" d="M292.568 186.329L309.124 179.69L245.746 89.3995L229.19 96.0382L292.568 186.329Z" fill="#DFE9F3"/>
<path opacity="0.59" d="M313.681 180.004L319.678 176.542L258.472 88.0227L252.476 91.4844L313.681 180.004Z" fill="#DFE9F3"/>
<path opacity="0.59" d="M313.576 148.993L315.429 147.93L276.835 86.3785L274.982 87.4414L313.576 148.993Z" fill="#DFE9F3"/>
<path opacity="0.59" d="M315.238 144.716L316.159 144.18L278.927 81.8599L278.004 82.3981L315.238 144.716Z" fill="#DFE9F3"/>
</g>
</g>
<rect width="432" height="112" transform="translate(0 240)" fill="white"/>
<path d="M82.2411 291V279.06H78.1611V277H88.9011V279.06H84.8011V291H82.2411ZM93.7606 291.24C92.7606 291.24 91.874 291.027 91.1006 290.6C90.3273 290.173 89.7206 289.573 89.2806 288.8C88.8406 288.027 88.6206 287.133 88.6206 286.12C88.6206 285.093 88.834 284.18 89.2606 283.38C89.7006 282.58 90.3006 281.96 91.0606 281.52C91.834 281.067 92.7406 280.84 93.7806 280.84C94.754 280.84 95.614 281.053 96.3606 281.48C97.1073 281.907 97.6873 282.493 98.1006 283.24C98.5273 283.973 98.7406 284.793 98.7406 285.7C98.7406 285.847 98.734 286 98.7206 286.16C98.7206 286.32 98.714 286.487 98.7006 286.66H91.1606C91.214 287.433 91.4806 288.04 91.9606 288.48C92.454 288.92 93.0473 289.14 93.7406 289.14C94.2606 289.14 94.694 289.027 95.0406 288.8C95.4006 288.56 95.6673 288.253 95.8406 287.88H98.4406C98.254 288.507 97.9406 289.08 97.5006 289.6C97.074 290.107 96.5406 290.507 95.9006 290.8C95.274 291.093 94.5606 291.24 93.7606 291.24ZM93.7806 282.92C93.154 282.92 92.6006 283.1 92.1206 283.46C91.6406 283.807 91.334 284.34 91.2006 285.06H96.1406C96.1006 284.407 95.8606 283.887 95.4206 283.5C94.9806 283.113 94.434 282.92 93.7806 282.92ZM100.894 291V276.6H103.454V291H100.894ZM106.07 291V276.6H108.63V291H106.07ZM119.731 291.24C118.491 291.24 117.531 290.853 116.851 290.08C116.184 289.307 115.851 288.173 115.851 286.68V281.08H118.391V286.44C118.391 287.293 118.564 287.947 118.911 288.4C119.258 288.853 119.804 289.08 120.551 289.08C121.258 289.08 121.838 288.827 122.291 288.32C122.758 287.813 122.991 287.107 122.991 286.2V281.08H125.551V291H123.291L123.091 289.32C122.784 289.907 122.338 290.373 121.751 290.72C121.178 291.067 120.504 291.24 119.731 291.24ZM132.279 291.24C131.399 291.24 130.626 291.1 129.959 290.82C129.292 290.527 128.759 290.127 128.359 289.62C127.959 289.113 127.719 288.527 127.639 287.86H130.219C130.299 288.247 130.512 288.58 130.859 288.86C131.219 289.127 131.679 289.26 132.239 289.26C132.799 289.26 133.206 289.147 133.459 288.92C133.726 288.693 133.859 288.433 133.859 288.14C133.859 287.713 133.672 287.427 133.299 287.28C132.926 287.12 132.406 286.967 131.739 286.82C131.312 286.727 130.879 286.613 130.439 286.48C129.999 286.347 129.592 286.18 129.219 285.98C128.859 285.767 128.566 285.5 128.339 285.18C128.112 284.847 127.999 284.44 127.999 283.96C127.999 283.08 128.346 282.34 129.039 281.74C129.746 281.14 130.732 280.84 131.999 280.84C133.172 280.84 134.106 281.113 134.799 281.66C135.506 282.207 135.926 282.96 136.059 283.92H133.639C133.492 283.187 132.939 282.82 131.979 282.82C131.499 282.82 131.126 282.913 130.859 283.1C130.606 283.287 130.479 283.52 130.479 283.8C130.479 284.093 130.672 284.327 131.059 284.5C131.446 284.673 131.959 284.833 132.599 284.98C133.292 285.14 133.926 285.32 134.499 285.52C135.086 285.707 135.552 285.993 135.899 286.38C136.246 286.753 136.419 287.293 136.419 288C136.432 288.613 136.272 289.167 135.939 289.66C135.606 290.153 135.126 290.54 134.499 290.82C133.872 291.1 133.132 291.24 132.279 291.24ZM146.872 291.24C146.019 291.24 145.319 291.107 144.772 290.84C144.226 290.56 143.819 290.193 143.552 289.74C143.286 289.287 143.152 288.787 143.152 288.24C143.152 287.32 143.512 286.573 144.232 286C144.952 285.427 146.032 285.14 147.472 285.14H149.992V284.9C149.992 284.22 149.799 283.72 149.412 283.4C149.026 283.08 148.546 282.92 147.972 282.92C147.452 282.92 146.999 283.047 146.612 283.3C146.226 283.54 145.986 283.9 145.892 284.38H143.392C143.459 283.66 143.699 283.033 144.112 282.5C144.539 281.967 145.086 281.56 145.752 281.28C146.419 280.987 147.166 280.84 147.992 280.84C149.406 280.84 150.519 281.193 151.332 281.9C152.146 282.607 152.552 283.607 152.552 284.9V291H150.372L150.132 289.4C149.839 289.933 149.426 290.373 148.892 290.72C148.372 291.067 147.699 291.24 146.872 291.24ZM147.452 289.24C148.186 289.24 148.752 289 149.152 288.52C149.566 288.04 149.826 287.447 149.932 286.74H147.752C147.072 286.74 146.586 286.867 146.292 287.12C145.999 287.36 145.852 287.66 145.852 288.02C145.852 288.407 145.999 288.707 146.292 288.92C146.586 289.133 146.972 289.24 147.452 289.24ZM160.875 291.24C160.129 291.24 159.475 291.1 158.915 290.82C158.355 290.54 157.902 290.147 157.555 289.64L157.275 291H154.995V276.6H157.555V282.5C157.875 282.06 158.295 281.673 158.815 281.34C159.349 281.007 160.035 280.84 160.875 280.84C161.809 280.84 162.642 281.067 163.375 281.52C164.109 281.973 164.689 282.593 165.115 283.38C165.542 284.167 165.755 285.06 165.755 286.06C165.755 287.06 165.542 287.953 165.115 288.74C164.689 289.513 164.109 290.127 163.375 290.58C162.642 291.02 161.809 291.24 160.875 291.24ZM160.335 289C161.149 289 161.822 288.727 162.355 288.18C162.889 287.633 163.155 286.927 163.155 286.06C163.155 285.193 162.889 284.48 162.355 283.92C161.822 283.36 161.149 283.08 160.335 283.08C159.509 283.08 158.829 283.36 158.295 283.92C157.775 284.467 157.515 285.173 157.515 286.04C157.515 286.907 157.775 287.62 158.295 288.18C158.829 288.727 159.509 289 160.335 289ZM172.802 291.24C171.842 291.24 170.976 291.02 170.202 290.58C169.442 290.14 168.836 289.533 168.382 288.76C167.942 287.973 167.722 287.067 167.722 286.04C167.722 285.013 167.949 284.113 168.402 283.34C168.856 282.553 169.462 281.94 170.222 281.5C170.996 281.06 171.862 280.84 172.822 280.84C173.769 280.84 174.622 281.06 175.382 281.5C176.156 281.94 176.762 282.553 177.202 283.34C177.656 284.113 177.882 285.013 177.882 286.04C177.882 287.067 177.656 287.973 177.202 288.76C176.762 289.533 176.156 290.14 175.382 290.58C174.609 291.02 173.749 291.24 172.802 291.24ZM172.802 289.02C173.469 289.02 174.049 288.773 174.542 288.28C175.036 287.773 175.282 287.027 175.282 286.04C175.282 285.053 175.036 284.313 174.542 283.82C174.049 283.313 173.476 283.06 172.822 283.06C172.142 283.06 171.556 283.313 171.062 283.82C170.582 284.313 170.342 285.053 170.342 286.04C170.342 287.027 170.582 287.773 171.062 288.28C171.556 288.773 172.136 289.02 172.802 289.02ZM183.891 291.24C182.651 291.24 181.691 290.853 181.011 290.08C180.344 289.307 180.011 288.173 180.011 286.68V281.08H182.551V286.44C182.551 287.293 182.724 287.947 183.071 288.4C183.418 288.853 183.964 289.08 184.711 289.08C185.418 289.08 185.998 288.827 186.451 288.32C186.918 287.813 187.151 287.107 187.151 286.2V281.08H189.711V291H187.451L187.251 289.32C186.944 289.907 186.498 290.373 185.911 290.72C185.338 291.067 184.664 291.24 183.891 291.24ZM196.759 291C195.719 291 194.886 290.747 194.259 290.24C193.632 289.733 193.319 288.833 193.319 287.54V283.22H191.619V281.08H193.319L193.619 278.42H195.879V281.08H198.559V283.22H195.879V287.56C195.879 288.04 195.979 288.373 196.179 288.56C196.392 288.733 196.752 288.82 197.259 288.82H198.499V291H196.759ZM206.763 295.4L209.063 290.34H208.463L204.603 281.08H207.383L210.163 288.06L213.063 281.08H215.783L209.483 295.4H206.763ZM221.357 291.24C220.397 291.24 219.53 291.02 218.757 290.58C217.997 290.14 217.39 289.533 216.937 288.76C216.497 287.973 216.277 287.067 216.277 286.04C216.277 285.013 216.504 284.113 216.957 283.34C217.41 282.553 218.017 281.94 218.777 281.5C219.55 281.06 220.417 280.84 221.377 280.84C222.324 280.84 223.177 281.06 223.937 281.5C224.71 281.94 225.317 282.553 225.757 283.34C226.21 284.113 226.437 285.013 226.437 286.04C226.437 287.067 226.21 287.973 225.757 288.76C225.317 289.533 224.71 290.14 223.937 290.58C223.164 291.02 222.304 291.24 221.357 291.24ZM221.357 289.02C222.024 289.02 222.604 288.773 223.097 288.28C223.59 287.773 223.837 287.027 223.837 286.04C223.837 285.053 223.59 284.313 223.097 283.82C222.604 283.313 222.03 283.06 221.377 283.06C220.697 283.06 220.11 283.313 219.617 283.82C219.137 284.313 218.897 285.053 218.897 286.04C218.897 287.027 219.137 287.773 219.617 288.28C220.11 288.773 220.69 289.02 221.357 289.02ZM232.446 291.24C231.206 291.24 230.246 290.853 229.566 290.08C228.899 289.307 228.566 288.173 228.566 286.68V281.08H231.106V286.44C231.106 287.293 231.279 287.947 231.626 288.4C231.972 288.853 232.519 289.08 233.266 289.08C233.972 289.08 234.552 288.827 235.006 288.32C235.472 287.813 235.706 287.107 235.706 286.2V281.08H238.266V291H236.006L235.806 289.32C235.499 289.907 235.052 290.373 234.466 290.72C233.892 291.067 233.219 291.24 232.446 291.24ZM240.894 291V281.08H243.174L243.414 282.94C243.774 282.3 244.26 281.793 244.874 281.42C245.5 281.033 246.234 280.84 247.074 280.84V283.54H246.354C245.794 283.54 245.294 283.627 244.854 283.8C244.414 283.973 244.067 284.273 243.814 284.7C243.574 285.127 243.454 285.72 243.454 286.48V291H240.894ZM253.589 291V281.08H255.869L256.109 282.94C256.469 282.3 256.956 281.793 257.569 281.42C258.196 281.033 258.929 280.84 259.769 280.84V283.54H259.049C258.489 283.54 257.989 283.627 257.549 283.8C257.109 283.973 256.762 284.273 256.509 284.7C256.269 285.127 256.149 285.72 256.149 286.48V291H253.589ZM266.163 291.24C265.163 291.24 264.276 291.027 263.503 290.6C262.73 290.173 262.123 289.573 261.683 288.8C261.243 288.027 261.023 287.133 261.023 286.12C261.023 285.093 261.236 284.18 261.663 283.38C262.103 282.58 262.703 281.96 263.463 281.52C264.236 281.067 265.143 280.84 266.183 280.84C267.156 280.84 268.016 281.053 268.763 281.48C269.51 281.907 270.09 282.493 270.503 283.24C270.93 283.973 271.143 284.793 271.143 285.7C271.143 285.847 271.136 286 271.123 286.16C271.123 286.32 271.116 286.487 271.103 286.66H263.563C263.616 287.433 263.883 288.04 264.363 288.48C264.856 288.92 265.45 289.14 266.143 289.14C266.663 289.14 267.096 289.027 267.443 288.8C267.803 288.56 268.07 288.253 268.243 287.88H270.843C270.656 288.507 270.343 289.08 269.903 289.6C269.476 290.107 268.943 290.507 268.303 290.8C267.676 291.093 266.963 291.24 266.163 291.24ZM266.183 282.92C265.556 282.92 265.003 283.1 264.523 283.46C264.043 283.807 263.736 284.34 263.603 285.06H268.543C268.503 284.407 268.263 283.887 267.823 283.5C267.383 283.113 266.836 282.92 266.183 282.92ZM277.396 291.24C276.516 291.24 275.743 291.1 275.076 290.82C274.409 290.527 273.876 290.127 273.476 289.62C273.076 289.113 272.836 288.527 272.756 287.86H275.336C275.416 288.247 275.629 288.58 275.976 288.86C276.336 289.127 276.796 289.26 277.356 289.26C277.916 289.26 278.323 289.147 278.576 288.92C278.843 288.693 278.976 288.433 278.976 288.14C278.976 287.713 278.789 287.427 278.416 287.28C278.043 287.12 277.523 286.967 276.856 286.82C276.429 286.727 275.996 286.613 275.556 286.48C275.116 286.347 274.709 286.18 274.336 285.98C273.976 285.767 273.683 285.5 273.456 285.18C273.229 284.847 273.116 284.44 273.116 283.96C273.116 283.08 273.463 282.34 274.156 281.74C274.863 281.14 275.849 280.84 277.116 280.84C278.289 280.84 279.223 281.113 279.916 281.66C280.623 282.207 281.043 282.96 281.176 283.92H278.756C278.609 283.187 278.056 282.82 277.096 282.82C276.616 282.82 276.243 282.913 275.976 283.1C275.723 283.287 275.596 283.52 275.596 283.8C275.596 284.093 275.789 284.327 276.176 284.5C276.563 284.673 277.076 284.833 277.716 284.98C278.409 285.14 279.043 285.32 279.616 285.52C280.203 285.707 280.669 285.993 281.016 286.38C281.363 286.753 281.536 287.293 281.536 288C281.549 288.613 281.389 289.167 281.056 289.66C280.723 290.153 280.243 290.54 279.616 290.82C278.989 291.1 278.249 291.24 277.396 291.24ZM287.911 291C286.871 291 286.038 290.747 285.411 290.24C284.785 289.733 284.471 288.833 284.471 287.54V283.22H282.771V281.08H284.471L284.771 278.42H287.031V281.08H289.711V283.22H287.031V287.56C287.031 288.04 287.131 288.373 287.331 288.56C287.545 288.733 287.905 288.82 288.411 288.82H289.651V291H287.911ZM295.329 291.24C294.476 291.24 293.776 291.107 293.229 290.84C292.683 290.56 292.276 290.193 292.009 289.74C291.743 289.287 291.609 288.787 291.609 288.24C291.609 287.32 291.969 286.573 292.689 286C293.409 285.427 294.489 285.14 295.929 285.14H298.449V284.9C298.449 284.22 298.256 283.72 297.869 283.4C297.483 283.08 297.003 282.92 296.429 282.92C295.909 282.92 295.456 283.047 295.069 283.3C294.683 283.54 294.443 283.9 294.349 284.38H291.849C291.916 283.66 292.156 283.033 292.569 282.5C292.996 281.967 293.543 281.56 294.209 281.28C294.876 280.987 295.623 280.84 296.449 280.84C297.863 280.84 298.976 281.193 299.789 281.9C300.603 282.607 301.009 283.607 301.009 284.9V291H298.829L298.589 289.4C298.296 289.933 297.883 290.373 297.349 290.72C296.829 291.067 296.156 291.24 295.329 291.24ZM295.909 289.24C296.643 289.24 297.209 289 297.609 288.52C298.023 288.04 298.283 287.447 298.389 286.74H296.209C295.529 286.74 295.043 286.867 294.749 287.12C294.456 287.36 294.309 287.66 294.309 288.02C294.309 288.407 294.456 288.707 294.749 288.92C295.043 289.133 295.429 289.24 295.909 289.24ZM307.172 291.24C305.932 291.24 304.972 290.853 304.292 290.08C303.626 289.307 303.292 288.173 303.292 286.68V281.08H305.832V286.44C305.832 287.293 306.006 287.947 306.352 288.4C306.699 288.853 307.246 289.08 307.992 289.08C308.699 289.08 309.279 288.827 309.732 288.32C310.199 287.813 310.432 287.107 310.432 286.2V281.08H312.992V291H310.732L310.532 289.32C310.226 289.907 309.779 290.373 309.192 290.72C308.619 291.067 307.946 291.24 307.172 291.24ZM315.62 291V281.08H317.9L318.14 282.94C318.5 282.3 318.987 281.793 319.6 281.42C320.227 281.033 320.96 280.84 321.8 280.84V283.54H321.08C320.52 283.54 320.02 283.627 319.58 283.8C319.14 283.973 318.794 284.273 318.54 284.7C318.3 285.127 318.18 285.72 318.18 286.48V291H315.62ZM326.97 291.24C326.117 291.24 325.417 291.107 324.87 290.84C324.323 290.56 323.917 290.193 323.65 289.74C323.383 289.287 323.25 288.787 323.25 288.24C323.25 287.32 323.61 286.573 324.33 286C325.05 285.427 326.13 285.14 327.57 285.14H330.09V284.9C330.09 284.22 329.897 283.72 329.51 283.4C329.123 283.08 328.643 282.92 328.07 282.92C327.55 282.92 327.097 283.047 326.71 283.3C326.323 283.54 326.083 283.9 325.99 284.38H323.49C323.557 283.66 323.797 283.033 324.21 282.5C324.637 281.967 325.183 281.56 325.85 281.28C326.517 280.987 327.263 280.84 328.09 280.84C329.503 280.84 330.617 281.193 331.43 281.9C332.243 282.607 332.65 283.607 332.65 284.9V291H330.47L330.23 289.4C329.937 289.933 329.523 290.373 328.99 290.72C328.47 291.067 327.797 291.24 326.97 291.24ZM327.55 289.24C328.283 289.24 328.85 289 329.25 288.52C329.663 288.04 329.923 287.447 330.03 286.74H327.85C327.17 286.74 326.683 286.867 326.39 287.12C326.097 287.36 325.95 287.66 325.95 288.02C325.95 288.407 326.097 288.707 326.39 288.92C326.683 289.133 327.07 289.24 327.55 289.24ZM335.093 291V281.08H337.353L337.553 282.76C337.86 282.173 338.3 281.707 338.873 281.36C339.46 281.013 340.146 280.84 340.933 280.84C342.16 280.84 343.113 281.227 343.793 282C344.473 282.773 344.813 283.907 344.813 285.4V291H342.253V285.64C342.253 284.787 342.08 284.133 341.733 283.68C341.386 283.227 340.846 283 340.113 283C339.393 283 338.8 283.253 338.333 283.76C337.88 284.267 337.653 284.973 337.653 285.88V291H335.093ZM351.681 291C350.641 291 349.808 290.747 349.181 290.24C348.554 289.733 348.241 288.833 348.241 287.54V283.22H346.541V281.08H348.241L348.541 278.42H350.801V281.08H353.481V283.22H350.801V287.56C350.801 288.04 350.901 288.373 351.101 288.56C351.314 288.733 351.674 288.82 352.181 288.82H353.421V291H351.681Z" fill="#1A1A1A"/>
<defs>
<clipPath id="clip0">
<rect width="212.233" height="210.155" fill="white" transform="translate(109.256 14.9222)"/>
</clipPath>
<clipPath id="clip1">
<rect width="69.278" height="78.4" fill="white" transform="translate(229.118 98.7666)"/>
</clipPath>
</defs>
</svg>
