<svg width="200" height="96" viewBox="0 0 200 96" fill="none" xmlns="http://www.w3.org/2000/svg">
<rect width="200" height="96" fill="#353FA8"/>
<path d="M0 84.3968V64.578H4.50406L4.9416 67.2527C5.5786 66.2924 6.4215 65.5319 7.47674 64.9583C8.52554 64.3847 9.74164 64.1011 11.125 64.1011C14.1814 64.1011 16.3497 65.287 17.6237 67.6588C18.3444 66.5696 19.3031 65.6995 20.5128 65.0614C21.7224 64.4233 23.0479 64.1011 24.4828 64.1011C27.063 64.1011 29.0448 64.8745 30.4281 66.4149C31.8115 67.9617 32.5 70.2239 32.5 73.208V84.3968H27.3976V73.6914C27.3976 71.9899 27.0694 70.6815 26.4195 69.7792C25.7697 68.8769 24.7659 68.4193 23.4082 68.4193C22.0249 68.4193 20.9181 68.9285 20.0752 69.9404C19.2388 70.9522 18.8205 72.3637 18.8205 74.1748V84.4032H13.7181V73.6914C13.7181 71.9899 13.3835 70.6815 12.7208 69.7792C12.058 68.8769 11.0349 68.4193 9.65156 68.4193C8.2939 68.4193 7.20006 68.9285 6.36359 69.9404C5.52712 70.9522 5.10889 72.3637 5.10889 74.1748V84.4032H0V84.3968Z" fill="white"/>
<path d="M46.977 84.8721C44.9823 84.8721 43.2129 84.4467 41.6751 83.596C40.1308 82.7452 38.9212 81.5464 38.0461 79.9996C37.171 78.4528 36.7271 76.6739 36.7271 74.6437C36.7271 72.5941 37.1582 70.7702 38.0204 69.1718C38.8826 67.5734 40.0794 66.3295 41.6107 65.4336C43.1421 64.5442 44.9438 64.093 47.0156 64.093C48.9588 64.093 50.6703 64.5184 52.1631 65.3692C53.6495 66.2199 54.8141 67.3865 55.6506 68.8624C56.487 70.3383 56.9053 71.9883 56.9053 73.7929C56.9053 74.0894 56.8988 74.3923 56.8859 74.7146C56.8731 75.0368 56.8538 75.3655 56.828 75.7136H41.7909C41.8939 77.2604 42.4343 78.4721 43.4059 79.3486C44.3775 80.2252 45.555 80.6699 46.9384 80.6699C47.9743 80.6699 48.843 80.4379 49.5508 79.9738C50.2521 79.5098 50.7797 78.9039 51.1272 78.1563H56.3133C55.9401 79.4066 55.3224 80.5474 54.4602 81.5722C53.598 82.597 52.5299 83.4026 51.2687 83.9891C50.0012 84.5821 48.5727 84.8721 46.977 84.8721ZM47.0156 68.2566C45.7674 68.2566 44.6606 68.6111 43.7084 69.3136C42.7496 70.0225 42.1384 71.0924 41.8746 72.5297H51.7256C51.6484 71.2278 51.1658 70.1837 50.2907 69.4167C49.4092 68.6433 48.3218 68.2566 47.0156 68.2566Z" fill="white"/>
<path d="M61.2175 84.3948V64.5761H65.7216L66.1205 67.934C66.7318 66.761 67.6133 65.8329 68.7715 65.1368C69.9297 64.4472 71.2873 64.0991 72.8573 64.0991C75.3024 64.0991 77.207 64.8725 78.5582 66.4129C79.9158 67.9598 80.5914 70.222 80.5914 73.2061V84.3948H75.489V73.6895C75.489 71.988 75.1415 70.6796 74.453 69.7773C73.7646 68.875 72.6836 68.4174 71.223 68.4174C69.7881 68.4174 68.6106 68.9265 67.6905 69.9384C66.7704 70.9503 66.3136 72.3618 66.3136 74.1729V84.4013H61.2175V84.3948Z" fill="white"/>
<path d="M92.8803 84.8721C90.4095 84.8721 88.4985 84.0987 87.1602 82.5583C85.8154 81.0115 85.1462 78.7492 85.1462 75.7652V64.5764H90.2101V75.2818C90.2101 76.9833 90.5575 78.2916 91.246 79.194C91.9345 80.0963 93.0283 80.5539 94.5147 80.5539C95.9238 80.5539 97.0884 80.0512 98.0021 79.0328C98.9222 78.021 99.379 76.6095 99.379 74.7984V64.5764H104.481V84.3887H99.9774L99.5785 81.0308C98.9672 82.2038 98.0857 83.1319 96.9276 83.828C95.7694 84.5241 94.4246 84.8721 92.8803 84.8721Z" fill="white"/>
<path d="M108.433 84.3952V80.2832L118.522 68.8173H108.548V64.5764H124.338V68.6884L114.088 80.1543H124.538V84.3887H108.433V84.3952Z" fill="white"/>
<path d="M135.63 84.8718C133.932 84.8718 132.535 84.6011 131.441 84.0532C130.354 83.5054 129.543 82.7835 129.009 81.8748C128.475 80.9725 128.211 79.9735 128.211 78.8778C128.211 77.0409 128.932 75.5521 130.367 74.4049C131.802 73.2576 133.957 72.684 136.827 72.684H141.852V72.2071C141.852 70.8472 141.466 69.8482 140.694 69.2101C139.922 68.572 138.963 68.2498 137.824 68.2498C136.788 68.2498 135.881 68.4947 135.115 68.991C134.343 69.4872 133.867 70.2091 133.681 71.1694H128.694C128.829 69.7322 129.312 68.4818 130.148 67.4119C130.985 66.3485 132.066 65.5299 133.398 64.9563C134.729 64.3827 136.216 64.0991 137.863 64.0991C140.681 64.0991 142.901 64.8081 144.523 66.2196C146.144 67.6311 146.955 69.629 146.955 72.2135V84.3948H142.605L142.129 81.198C141.543 82.2615 140.726 83.1445 139.677 83.8341C138.629 84.5237 137.284 84.8718 135.63 84.8718ZM136.788 80.8758C138.249 80.8758 139.388 80.3988 140.199 79.4385C141.009 78.4782 141.524 77.2923 141.736 75.8808H137.387C136.029 75.8808 135.058 76.1257 134.479 76.622C133.893 77.1183 133.603 77.7177 133.603 78.4395C133.603 79.2129 133.893 79.8123 134.479 80.2377C135.064 80.6631 135.83 80.8758 136.788 80.8758Z" fill="white"/>
<path d="M151.825 93.1795V64.5761H156.374L156.934 67.4119C157.571 66.5354 158.414 65.762 159.469 65.0981C160.518 64.4343 161.882 64.0991 163.555 64.0991C165.415 64.0991 167.075 64.5503 168.542 65.459C170.002 66.3678 171.16 67.6053 172.01 69.1714C172.859 70.744 173.284 72.5293 173.284 74.5273C173.284 76.5253 172.859 78.3042 172.01 79.8575C171.16 81.4172 170.002 82.6417 168.542 83.5312C167.081 84.4206 165.415 84.8718 163.555 84.8718C162.069 84.8718 160.763 84.5946 159.649 84.0339C158.53 83.4732 157.629 82.6869 156.941 81.675V93.1795H151.825ZM162.474 80.3988C164.096 80.3988 165.44 79.851 166.502 78.7618C167.564 77.6726 168.098 76.2611 168.098 74.5273C168.098 72.7936 167.564 71.3692 166.502 70.2542C165.44 69.1328 164.096 68.5785 162.474 68.5785C160.827 68.5785 159.476 69.1328 158.427 70.2349C157.378 71.3434 156.85 72.7614 156.85 74.4887C156.85 76.2224 157.378 77.6403 158.427 78.7424C159.476 79.8446 160.827 80.3988 162.474 80.3988Z" fill="white"/>
<path d="M177.827 93.1795V64.5761H182.376L182.936 67.4119C183.573 66.5354 184.416 65.762 185.471 65.0981C186.52 64.4343 187.884 64.0991 189.557 64.0991C191.417 64.0991 193.077 64.5503 194.544 65.459C196.004 66.3678 197.162 67.6053 198.012 69.1714C198.861 70.744 199.286 72.5293 199.286 74.5273C199.286 76.5253 198.861 78.3042 198.012 79.8575C197.162 81.4172 196.004 82.6417 194.544 83.5312C193.083 84.4206 191.417 84.8718 189.557 84.8718C188.071 84.8718 186.765 84.5946 185.651 84.0339C184.532 83.4732 183.631 82.6869 182.942 81.675V93.1795H177.827ZM188.476 80.3988C190.098 80.3988 191.442 79.851 192.504 78.7618C193.566 77.6726 194.1 76.2611 194.1 74.5273C194.1 72.7936 193.566 71.3692 192.504 70.2542C191.442 69.1328 190.098 68.5785 188.476 68.5785C186.829 68.5785 185.478 69.1328 184.429 70.2349C183.38 71.3434 182.852 72.7614 182.852 74.4887C182.852 76.2224 183.38 77.6403 184.429 78.7424C185.478 79.8446 186.829 80.3988 188.476 80.3988Z" fill="white"/>
<path d="M134.327 20.1121C131.074 18.5265 97.9985 2.40919 96.3839 1.63227C94.4765 0.712637 92.3317 0.799843 90.63 1.8701C89.1183 2.82144 88.2161 4.41494 88.2161 6.12735V10.2736C79.5417 6.04807 71.2313 2.00487 70.4557 1.63227C68.5562 0.712637 66.4034 0.799843 64.7018 1.8701C63.1901 2.82144 62.2878 4.40701 62.2878 6.12735V43.1583C62.2878 44.8707 63.1347 46.3849 64.6068 47.3283C65.5487 47.9308 66.6488 48.2321 67.7568 48.2321C68.6354 48.2321 69.5218 48.0418 70.337 47.6613C71.5717 47.0826 79.7395 43.1107 88.2082 38.9803V43.1583C88.2082 44.8707 89.055 46.3849 90.5271 47.3283C91.469 47.9308 92.5691 48.2321 93.6772 48.2321C94.5557 48.2321 95.4421 48.0418 96.2573 47.6613C98.8929 46.4245 132.625 29.9664 134.334 29.1101C136.147 28.2064 137.271 26.4781 137.263 24.5913C137.271 22.7124 136.139 21 134.327 20.1121ZM67.9943 42.6271C67.9389 42.6509 67.8835 42.6667 67.8281 42.6667V6.55545C67.8914 6.56338 67.9626 6.58716 68.0497 6.6268C68.8965 7.03905 78.7265 11.8195 88.2082 16.4415L93.7484 19.1449V30.1011C84.425 34.6438 69.1735 42.0722 67.9943 42.6271ZM93.7484 19.1449C98.6713 21.5391 102.929 23.6162 104.979 24.6151C103.016 25.5823 98.7267 27.6752 93.7484 30.1011V24.623V19.1449ZM93.9146 42.6271C93.8592 42.6509 93.8038 42.6667 93.7484 42.6747V36.2769C101.188 32.646 107.694 29.4669 108.422 29.1101C110.234 28.2064 111.358 26.4781 111.35 24.5913C111.343 22.7203 110.211 21.0079 108.398 20.12C107.069 19.4699 100.808 16.4177 93.7405 12.977V6.55545C93.8038 6.56338 93.875 6.58716 93.9621 6.6268C95.4738 7.35616 124.37 21.436 130.884 24.6151C124.75 27.6356 96.012 41.6441 93.9146 42.6271Z" fill="white"/>
</svg>
