<svg width="432" height="240" viewBox="0 0 432 240" fill="none" xmlns="http://www.w3.org/2000/svg">
<g clip-path="url(#clip0)">
<path d="M432 -0.00274658H0V240.814H432V-0.00274658Z" fill="#CADAEE"/>
<path d="M214.071 78.1833C188.18 78.1138 165.976 81.3542 148.704 85.0999C148.704 94.5831 148.704 104.066 148.704 113.552C150.953 113.084 153.28 112.624 155.683 112.178L160.157 158.121L167.069 157.46L162.633 111.919L211.398 158.329L196.915 172.111L199.321 174.59L213.901 160.711L225.994 172.221L228.4 169.743L216.406 158.326L263.807 113.21L259.498 157.458L266.41 158.118L270.884 112.189C273.26 112.63 275.569 113.084 277.801 113.549C277.801 104.066 277.801 94.5831 277.801 85.0972C260.856 81.4237 239.229 78.2502 214.071 78.1833ZM166.089 110.435C180.664 108.237 197.479 106.737 216.115 106.906C232.917 107.058 248.145 108.544 261.529 110.614L213.901 155.944L166.089 110.435Z" fill="#C3996B"/>
<path d="M214.323 313.209C363.856 313.209 485.076 277.803 485.076 234.128C485.076 190.452 363.856 155.046 214.323 155.046C64.7897 155.046 -56.4307 190.452 -56.4307 234.128C-56.4307 277.803 64.7897 313.209 214.323 313.209Z" fill="#141974"/>
<path d="M301.431 218.976C302.446 222.276 303.723 224.647 304.738 226.235C305.637 227.647 306.337 228.449 306.752 230.056C307.279 232.101 306.739 233.09 306.906 235.21C307.012 236.55 307.406 238.459 308.767 240.729H392.38L384.415 220.302L301.433 202.766V218.976H301.431Z" fill="#D8A481"/>
<path d="M392.375 240.729C391.465 237.683 390.447 233.975 389.464 229.719C388.036 223.527 387.22 218.511 386.799 215.645C385.614 207.606 385.949 205.913 385.023 198.275C384.572 194.553 383.708 188.487 382.136 181.562C379.998 172.149 377.86 163.067 371.922 153.196C370.726 151.207 368.933 148.891 365.483 144.18C361.727 139.052 360.207 137.192 357.016 132.767C355.279 130.358 353.079 127.233 350.598 123.511L328.115 232.951L392.375 240.729Z" fill="#E4B494"/>
<path d="M264.017 200.865V205.555C264.017 212.076 268.955 217.361 275.049 217.361H334.916C341.01 217.361 345.949 212.076 345.949 205.555V46.3435C345.949 39.8226 341.01 34.537 334.916 34.537H275.049C268.955 34.537 264.017 39.8226 264.017 46.3435V192.275" fill="white"/>
<path d="M259.372 43.9454V207.964C259.372 214.688 264.878 220.123 271.652 220.123H338.312C345.103 220.123 350.592 214.688 350.592 207.964V43.9454C350.592 37.2214 345.103 31.77 338.312 31.77H271.652C264.878 31.7726 259.372 37.2214 259.372 43.9454ZM264.016 47.5708C264.016 41.1462 268.963 35.9514 275.057 35.9514H281.453C282.117 38.4967 284.463 40.3842 287.261 40.3842H320.336C323.133 40.3842 325.493 38.4967 326.157 35.9514H334.913C341.007 35.9514 345.953 41.1489 345.953 47.5708V204.328C345.953 210.752 341.007 215.963 334.913 215.963H275.057C268.963 215.963 264.016 210.752 264.016 204.328V47.5708Z" fill="#4D4D4D"/>
<path d="M289.645 170.512C289.086 171.427 288.465 173.044 288.995 174.854L306.915 166.604C306.809 166.32 306.369 166.363 304.177 166.184C302.635 166.05 302.8 166.018 300.775 165.855C298.839 165.689 298.491 165.705 298.113 165.735C297.902 165.764 296.962 165.855 295.782 166.288C295.375 166.438 294.481 166.783 292.834 167.906C291.02 169.136 290.129 169.748 289.645 170.512Z" fill="#EED0BB"/>
<path d="M306.915 166.604L288.995 174.854C289.07 175.108 289.691 177.146 291.733 178.119C293.593 178.988 295.391 178.373 296.663 177.953C297.373 177.712 298.826 177.22 300.005 175.886C300.942 174.838 300.656 174.419 301.866 172.472C302.093 172.098 302.878 170.871 304.12 169.537C305.873 167.652 307.096 167.082 306.915 166.604Z" fill="#EED0BB"/>
<path d="M291.733 178.119C289.691 177.146 289.07 175.108 288.995 174.854C289.192 176.098 289.646 178.015 290.809 180.065C292.956 183.854 296.252 185.755 298.642 187.118C300.788 188.361 302.678 189.019 304.177 189.559C305.932 190.187 306.823 190.503 307.868 190.562C308.338 190.591 308.683 190.562 309.169 190.741C310.122 191.086 310.454 191.743 311.286 192.658C312.617 194.11 312.949 193.826 313.781 194.874C314.718 196.056 314.294 196.476 315.171 198.513C316.26 201.013 318.074 203.05 318.333 203.336C319.043 204.13 319.602 204.609 320.012 205.627C320.374 206.496 320.193 206.721 320.512 208.039C320.798 209.178 321.252 210.076 321.646 211.303C322.31 213.429 321.327 213.878 321.511 217.848C321.57 218.987 321.662 218.747 321.83 221.054C321.997 223.316 322.056 225.021 322.073 225.561C322.24 229.649 322.329 231.687 322.648 233.588C322.934 235.309 323.539 237.796 325.007 240.731C347.466 240.731 369.922 240.731 392.381 240.731C389.718 237.002 368.078 206.932 350.536 190.85C346.68 187.316 346.802 187.84 339.798 181.715C330.891 173.913 324.646 167.954 318.703 167.534C318.266 167.505 316.859 167.443 314.469 167.264C311.202 167.024 308.573 166.77 306.923 166.606C307.104 167.085 305.881 167.654 304.126 169.542C302.886 170.873 302.098 172.103 301.871 172.478C300.662 174.424 300.948 174.844 300.011 175.892C298.831 177.223 297.378 177.718 296.668 177.958C295.391 178.376 293.593 178.988 291.733 178.119Z" fill="#E4B494"/>
<path d="M277.802 126.509V121.541H279.658C280.059 121.541 280.391 121.607 280.654 121.74C280.917 121.872 281.113 122.055 281.242 122.286C281.371 122.518 281.435 122.778 281.435 123.067C281.435 123.341 281.373 123.594 281.249 123.826C281.125 124.053 280.931 124.238 280.668 124.38C280.406 124.517 280.069 124.586 279.658 124.586H278.719V126.509H277.802ZM278.719 123.847H279.601C279.921 123.847 280.15 123.779 280.288 123.642C280.432 123.5 280.503 123.308 280.503 123.067C280.503 122.821 280.432 122.629 280.288 122.492C280.15 122.35 279.921 122.279 279.601 122.279H278.719V123.847Z" fill="#1A1A1A"/>
<path d="M282.133 126.509V122.989H282.95L283.036 123.649C283.165 123.422 283.34 123.242 283.559 123.109C283.784 122.972 284.047 122.904 284.348 122.904V123.862H284.09C283.889 123.862 283.71 123.892 283.552 123.954C283.395 124.015 283.27 124.122 283.18 124.273C283.094 124.425 283.051 124.635 283.051 124.905V126.509H282.133Z" fill="#1A1A1A"/>
<path d="M286.639 126.594C286.28 126.594 285.963 126.518 285.686 126.367C285.409 126.215 285.191 126.002 285.034 125.728C284.876 125.454 284.797 125.137 284.797 124.777C284.797 124.413 284.873 124.089 285.026 123.805C285.184 123.521 285.399 123.301 285.671 123.145C285.948 122.984 286.273 122.904 286.646 122.904C286.995 122.904 287.303 122.979 287.57 123.131C287.838 123.282 288.046 123.49 288.194 123.755C288.347 124.015 288.423 124.306 288.423 124.628C288.423 124.68 288.421 124.735 288.416 124.791C288.416 124.848 288.414 124.907 288.409 124.969H285.707C285.726 125.243 285.822 125.458 285.994 125.614C286.171 125.771 286.383 125.849 286.632 125.849C286.818 125.849 286.973 125.808 287.097 125.728C287.226 125.643 287.322 125.534 287.384 125.402H288.316C288.249 125.624 288.137 125.827 287.979 126.012C287.826 126.192 287.635 126.334 287.406 126.438C287.181 126.542 286.925 126.594 286.639 126.594ZM286.646 123.642C286.421 123.642 286.223 123.706 286.051 123.833C285.879 123.956 285.769 124.146 285.721 124.401H287.492C287.477 124.169 287.391 123.985 287.234 123.847C287.076 123.71 286.88 123.642 286.646 123.642Z" fill="#1A1A1A"/>
<path d="M289.195 128.07V122.989H290.012L290.112 123.493C290.227 123.337 290.377 123.199 290.564 123.081C290.755 122.963 291.001 122.904 291.302 122.904C291.636 122.904 291.935 122.984 292.197 123.145C292.46 123.306 292.668 123.526 292.821 123.805C292.974 124.084 293.05 124.401 293.05 124.756C293.05 125.111 292.974 125.428 292.821 125.707C292.668 125.981 292.46 126.199 292.197 126.36C291.935 126.516 291.636 126.594 291.302 126.594C291.034 126.594 290.8 126.544 290.599 126.445C290.399 126.345 290.236 126.206 290.112 126.026V128.07H289.195ZM291.108 125.799C291.4 125.799 291.641 125.702 291.832 125.508C292.023 125.314 292.119 125.063 292.119 124.756C292.119 124.448 292.023 124.195 291.832 123.997C291.641 123.798 291.4 123.698 291.108 123.698C290.812 123.698 290.568 123.798 290.377 123.997C290.191 124.19 290.098 124.441 290.098 124.749C290.098 125.056 290.191 125.309 290.377 125.508C290.568 125.702 290.812 125.799 291.108 125.799Z" fill="#1A1A1A"/>
<path d="M295.095 126.594C294.789 126.594 294.539 126.546 294.343 126.452C294.147 126.352 294.001 126.222 293.906 126.062C293.81 125.901 293.762 125.723 293.762 125.529C293.762 125.203 293.891 124.938 294.149 124.735C294.407 124.531 294.794 124.429 295.31 124.429H296.213V124.344C296.213 124.103 296.144 123.926 296.005 123.812C295.867 123.698 295.695 123.642 295.489 123.642C295.303 123.642 295.141 123.687 295.002 123.777C294.863 123.862 294.777 123.989 294.744 124.16H293.848C293.872 123.904 293.958 123.682 294.106 123.493C294.259 123.303 294.455 123.159 294.694 123.06C294.933 122.956 295.2 122.904 295.496 122.904C296.003 122.904 296.402 123.029 296.693 123.28C296.985 123.531 297.13 123.885 297.13 124.344V126.509H296.349L296.263 125.941C296.158 126.13 296.01 126.286 295.819 126.409C295.633 126.532 295.391 126.594 295.095 126.594ZM295.303 125.884C295.566 125.884 295.769 125.799 295.912 125.629C296.06 125.458 296.153 125.248 296.192 124.997H295.41C295.167 124.997 294.992 125.042 294.887 125.132C294.782 125.217 294.73 125.324 294.73 125.451C294.73 125.588 294.782 125.695 294.887 125.771C294.992 125.846 295.131 125.884 295.303 125.884Z" fill="#1A1A1A"/>
<path d="M298.006 126.509V122.989H298.823L298.909 123.649C299.038 123.422 299.212 123.242 299.432 123.109C299.656 122.972 299.919 122.904 300.22 122.904V123.862H299.962C299.762 123.862 299.582 123.892 299.425 123.954C299.267 124.015 299.143 124.122 299.052 124.273C298.966 124.425 298.923 124.635 298.923 124.905V126.509H298.006Z" fill="#1A1A1A"/>
<path d="M301.342 122.442C301.174 122.442 301.036 122.393 300.926 122.293C300.821 122.194 300.768 122.069 300.768 121.917C300.768 121.766 300.821 121.643 300.926 121.548C301.036 121.449 301.174 121.399 301.342 121.399C301.509 121.399 301.645 121.449 301.75 121.548C301.86 121.643 301.915 121.766 301.915 121.917C301.915 122.069 301.86 122.194 301.75 122.293C301.645 122.393 301.509 122.442 301.342 122.442ZM300.883 126.509V122.989H301.8V126.509H300.883Z" fill="#1A1A1A"/>
<path d="M302.758 126.509V122.989H303.568L303.639 123.585C303.749 123.377 303.907 123.211 304.112 123.088C304.322 122.965 304.568 122.904 304.85 122.904C305.29 122.904 305.632 123.041 305.875 123.315C306.119 123.59 306.241 123.992 306.241 124.522V126.509H305.323V124.607C305.323 124.304 305.261 124.072 305.137 123.911C305.013 123.751 304.819 123.67 304.557 123.67C304.299 123.67 304.086 123.76 303.919 123.94C303.756 124.12 303.675 124.37 303.675 124.692V126.509H302.758Z" fill="#1A1A1A"/>
<path d="M308.623 125.458C308.451 125.458 308.291 125.439 308.143 125.402L307.877 125.664C307.959 125.707 308.069 125.742 308.207 125.771C308.346 125.799 308.57 125.827 308.881 125.856C309.354 125.898 309.698 126.009 309.913 126.189C310.128 126.369 310.235 126.617 310.235 126.934C310.235 127.143 310.178 127.339 310.063 127.523C309.949 127.713 309.772 127.864 309.533 127.978C309.294 128.096 308.988 128.155 308.616 128.155C308.109 128.155 307.701 128.06 307.39 127.871C307.08 127.687 306.924 127.407 306.924 127.034C306.924 126.717 307.08 126.442 307.39 126.211C307.295 126.168 307.211 126.123 307.139 126.076C307.072 126.028 307.013 125.979 306.96 125.927V125.763L307.584 125.111C307.307 124.869 307.168 124.559 307.168 124.181C307.168 123.944 307.225 123.729 307.34 123.535C307.459 123.341 307.627 123.188 307.842 123.074C308.057 122.96 308.317 122.904 308.623 122.904C308.823 122.904 309.01 122.932 309.182 122.989H310.529V123.542L309.92 123.585C310.015 123.765 310.063 123.963 310.063 124.181C310.063 124.418 310.006 124.633 309.891 124.827C309.777 125.021 309.609 125.174 309.39 125.288C309.175 125.402 308.919 125.458 308.623 125.458ZM308.623 124.763C308.809 124.763 308.962 124.713 309.081 124.614C309.206 124.515 309.268 124.373 309.268 124.188C309.268 124.004 309.206 123.862 309.081 123.762C308.962 123.663 308.809 123.613 308.623 123.613C308.427 123.613 308.269 123.663 308.15 123.762C308.03 123.862 307.971 124.004 307.971 124.188C307.971 124.373 308.03 124.515 308.15 124.614C308.269 124.713 308.427 124.763 308.623 124.763ZM307.763 126.941C307.763 127.117 307.844 127.247 308.006 127.332C308.174 127.422 308.377 127.467 308.616 127.467C308.845 127.467 309.031 127.419 309.175 127.325C309.318 127.235 309.39 127.112 309.39 126.956C309.39 126.828 309.342 126.721 309.246 126.636C309.155 126.551 308.972 126.499 308.694 126.48C308.499 126.466 308.317 126.445 308.15 126.416C308.011 126.492 307.911 126.575 307.849 126.665C307.791 126.755 307.763 126.847 307.763 126.941Z" fill="#1A1A1A"/>
<path d="M314.611 126.594C314.267 126.594 313.957 126.516 313.68 126.36C313.407 126.203 313.19 125.988 313.027 125.714C312.87 125.435 312.791 125.113 312.791 124.749C312.791 124.384 312.872 124.065 313.035 123.791C313.197 123.512 313.414 123.294 313.687 123.138C313.964 122.982 314.274 122.904 314.618 122.904C314.958 122.904 315.263 122.982 315.536 123.138C315.813 123.294 316.03 123.512 316.188 123.791C316.35 124.065 316.431 124.384 316.431 124.749C316.431 125.113 316.35 125.435 316.188 125.714C316.03 125.988 315.813 126.203 315.536 126.36C315.259 126.516 314.95 126.594 314.611 126.594ZM314.611 125.806C314.85 125.806 315.058 125.719 315.235 125.544C315.411 125.364 315.5 125.099 315.5 124.749C315.5 124.399 315.411 124.136 315.235 123.961C315.058 123.781 314.852 123.691 314.618 123.691C314.375 123.691 314.164 123.781 313.988 123.961C313.816 124.136 313.73 124.399 313.73 124.749C313.73 125.099 313.816 125.364 313.988 125.544C314.164 125.719 314.372 125.806 314.611 125.806Z" fill="#1A1A1A"/>
<path d="M317.252 126.509V122.989H318.069L318.155 123.649C318.284 123.422 318.458 123.242 318.678 123.109C318.902 122.972 319.165 122.904 319.466 122.904V123.862H319.208C319.007 123.862 318.828 123.892 318.671 123.954C318.513 124.015 318.389 124.122 318.298 124.273C318.212 124.425 318.169 124.635 318.169 124.905V126.509H317.252Z" fill="#1A1A1A"/>
<path d="M321.664 126.594C321.329 126.594 321.031 126.513 320.768 126.352C320.505 126.192 320.298 125.972 320.145 125.693C319.992 125.413 319.915 125.096 319.915 124.742C319.915 124.387 319.992 124.072 320.145 123.798C320.298 123.519 320.505 123.301 320.768 123.145C321.031 122.984 321.329 122.904 321.664 122.904C321.931 122.904 322.166 122.953 322.366 123.053C322.567 123.152 322.729 123.292 322.854 123.471V121.399H323.771V126.509H322.954L322.854 126.005C322.739 126.161 322.586 126.298 322.395 126.416C322.209 126.535 321.965 126.594 321.664 126.594ZM321.857 125.799C322.154 125.799 322.395 125.702 322.581 125.508C322.772 125.309 322.868 125.056 322.868 124.749C322.868 124.441 322.772 124.19 322.581 123.997C322.395 123.798 322.154 123.698 321.857 123.698C321.566 123.698 321.325 123.795 321.134 123.989C320.942 124.183 320.847 124.434 320.847 124.742C320.847 125.049 320.942 125.302 321.134 125.501C321.325 125.7 321.566 125.799 321.857 125.799Z" fill="#1A1A1A"/>
<path d="M326.432 126.594C326.074 126.594 325.756 126.518 325.479 126.367C325.202 126.215 324.984 126.002 324.827 125.728C324.669 125.454 324.59 125.137 324.59 124.777C324.59 124.413 324.667 124.089 324.82 123.805C324.977 123.521 325.192 123.301 325.465 123.145C325.742 122.984 326.067 122.904 326.439 122.904C326.788 122.904 327.096 122.979 327.364 123.131C327.631 123.282 327.839 123.49 327.987 123.755C328.14 124.015 328.216 124.306 328.216 124.628C328.216 124.68 328.214 124.735 328.209 124.791C328.209 124.848 328.207 124.907 328.202 124.969H325.5C325.52 125.243 325.615 125.458 325.787 125.614C325.964 125.771 326.176 125.849 326.425 125.849C326.611 125.849 326.766 125.808 326.891 125.728C327.02 125.643 327.115 125.534 327.177 125.402H328.109C328.042 125.624 327.93 125.827 327.772 126.012C327.619 126.192 327.428 126.334 327.199 126.438C326.974 126.542 326.719 126.594 326.432 126.594ZM326.439 123.642C326.215 123.642 326.016 123.706 325.844 123.833C325.672 123.956 325.563 124.146 325.515 124.401H327.285C327.271 124.169 327.185 123.985 327.027 123.847C326.869 123.71 326.673 123.642 326.439 123.642Z" fill="#1A1A1A"/>
<path d="M328.988 126.509V122.989H329.805L329.891 123.649C330.02 123.422 330.194 123.242 330.414 123.109C330.639 122.972 330.901 122.904 331.202 122.904V123.862H330.944C330.744 123.862 330.565 123.892 330.407 123.954C330.249 124.015 330.125 124.122 330.034 124.273C329.948 124.425 329.905 124.635 329.905 124.905V126.509H328.988Z" fill="#1A1A1A"/>
<path d="M272.072 134.602L271.198 131.328H271.845L272.44 133.933L273.139 131.328H273.805L274.485 133.933L275.081 131.328H275.732L274.835 134.602H274.117L273.461 132.175L272.785 134.602H272.072Z" fill="#1A1A1A"/>
<path d="M277.046 134.658C276.809 134.658 276.6 134.608 276.417 134.509C276.235 134.409 276.091 134.268 275.988 134.088C275.884 133.907 275.832 133.698 275.832 133.461C275.832 133.221 275.882 133.007 275.983 132.82C276.087 132.633 276.228 132.488 276.408 132.385C276.591 132.279 276.805 132.226 277.05 132.226C277.28 132.226 277.483 132.276 277.66 132.376C277.836 132.476 277.973 132.613 278.07 132.787C278.171 132.959 278.222 133.151 278.222 133.363C278.222 133.397 278.22 133.433 278.217 133.47C278.217 133.508 278.215 133.547 278.212 133.587H276.432C276.444 133.768 276.507 133.91 276.62 134.013C276.737 134.116 276.877 134.167 277.041 134.167C277.164 134.167 277.266 134.141 277.348 134.088C277.433 134.031 277.496 133.96 277.537 133.872H278.151C278.107 134.019 278.033 134.153 277.929 134.275C277.828 134.393 277.702 134.487 277.551 134.555C277.403 134.624 277.234 134.658 277.046 134.658ZM277.05 132.713C276.902 132.713 276.772 132.755 276.658 132.839C276.545 132.92 276.472 133.045 276.441 133.213H277.608C277.598 133.06 277.541 132.939 277.438 132.848C277.334 132.758 277.205 132.713 277.05 132.713Z" fill="#1A1A1A"/>
<path d="M280.994 134.658C280.758 134.658 280.548 134.608 280.366 134.509C280.183 134.409 280.04 134.268 279.936 134.088C279.832 133.907 279.78 133.698 279.78 133.461C279.78 133.221 279.83 133.007 279.931 132.82C280.035 132.633 280.177 132.488 280.356 132.385C280.539 132.279 280.753 132.226 280.998 132.226C281.228 132.226 281.431 132.276 281.608 132.376C281.784 132.476 281.921 132.613 282.019 132.787C282.119 132.959 282.17 133.151 282.17 133.363C282.17 133.397 282.168 133.433 282.165 133.47C282.165 133.508 282.163 133.547 282.16 133.587H280.38C280.392 133.768 280.455 133.91 280.569 134.013C280.685 134.116 280.825 134.167 280.989 134.167C281.112 134.167 281.214 134.141 281.296 134.088C281.381 134.031 281.444 133.96 281.485 133.872H282.099C282.055 134.019 281.981 134.153 281.877 134.275C281.776 134.393 281.65 134.487 281.499 134.555C281.351 134.624 281.183 134.658 280.994 134.658ZM280.998 132.713C280.85 132.713 280.72 132.755 280.606 132.839C280.493 132.92 280.421 133.045 280.389 133.213H281.556C281.546 133.06 281.49 132.939 281.386 132.848C281.282 132.758 281.153 132.713 280.998 132.713Z" fill="#1A1A1A"/>
<path d="M283.646 134.658C283.439 134.658 283.256 134.625 283.099 134.56C282.941 134.491 282.815 134.398 282.721 134.279C282.626 134.161 282.57 134.024 282.551 133.868H283.16C283.179 133.958 283.229 134.036 283.311 134.102C283.396 134.164 283.505 134.195 283.637 134.195C283.769 134.195 283.865 134.169 283.925 134.116C283.988 134.063 284.02 134.002 284.02 133.933C284.02 133.833 283.975 133.766 283.887 133.732C283.799 133.695 283.676 133.659 283.519 133.625C283.418 133.603 283.316 133.576 283.212 133.545C283.108 133.514 283.012 133.475 282.924 133.428C282.839 133.378 282.77 133.316 282.716 133.241C282.662 133.163 282.636 133.068 282.636 132.956C282.636 132.75 282.718 132.577 282.881 132.437C283.048 132.296 283.281 132.226 283.58 132.226C283.857 132.226 284.078 132.29 284.242 132.418C284.408 132.546 284.508 132.722 284.539 132.946H283.968C283.933 132.775 283.802 132.689 283.576 132.689C283.462 132.689 283.374 132.711 283.311 132.755C283.251 132.798 283.221 132.853 283.221 132.918C283.221 132.987 283.267 133.042 283.358 133.082C283.45 133.123 283.571 133.16 283.722 133.194C283.886 133.232 284.035 133.274 284.171 133.321C284.309 133.364 284.419 133.431 284.501 133.522C284.583 133.609 284.624 133.735 284.624 133.901C284.627 134.044 284.589 134.173 284.511 134.289C284.432 134.404 284.319 134.494 284.171 134.56C284.023 134.625 283.848 134.658 283.646 134.658Z" fill="#1A1A1A"/>
<path d="M286.13 134.602C285.884 134.602 285.687 134.543 285.539 134.424C285.391 134.306 285.317 134.095 285.317 133.793V132.783H284.916V132.282H285.317L285.388 131.66H285.922V132.282H286.555V132.783H285.922V133.798C285.922 133.91 285.945 133.988 285.993 134.031C286.043 134.072 286.128 134.092 286.248 134.092H286.541V134.602H286.13Z" fill="#1A1A1A"/>
<path d="M287.4 131.922C287.289 131.922 287.198 131.889 287.126 131.824C287.056 131.759 287.022 131.676 287.022 131.576C287.022 131.476 287.056 131.395 287.126 131.333C287.198 131.267 287.289 131.235 287.4 131.235C287.51 131.235 287.6 131.267 287.669 131.333C287.741 131.395 287.778 131.476 287.778 131.576C287.778 131.676 287.741 131.759 287.669 131.824C287.6 131.889 287.51 131.922 287.4 131.922ZM287.097 134.602V132.282H287.702V134.602H287.097Z" fill="#1A1A1A"/>
<path d="M288.333 134.602V132.282H288.867L288.919 132.596C288.994 132.483 289.093 132.395 289.216 132.329C289.342 132.261 289.487 132.226 289.651 132.226C290.013 132.226 290.269 132.365 290.421 132.642C290.506 132.515 290.619 132.413 290.761 132.338C290.905 132.264 291.063 132.226 291.233 132.226C291.538 132.226 291.773 132.317 291.937 132.497C292.1 132.678 292.182 132.943 292.182 133.293V134.602H291.578V133.349C291.578 133.149 291.538 132.996 291.46 132.89C291.384 132.784 291.266 132.731 291.105 132.731C290.942 132.731 290.809 132.791 290.709 132.909C290.611 133.028 290.562 133.193 290.562 133.405V134.602H289.958V133.349C289.958 133.149 289.918 132.996 289.84 132.89C289.761 132.784 289.64 132.731 289.476 132.731C289.315 132.731 289.185 132.791 289.084 132.909C288.986 133.028 288.938 133.193 288.938 133.405V134.602H288.333Z" fill="#1A1A1A"/>
<path d="M293.564 134.658C293.362 134.658 293.197 134.627 293.068 134.565C292.939 134.499 292.843 134.413 292.78 134.307C292.717 134.201 292.685 134.084 292.685 133.957C292.685 133.742 292.77 133.567 292.94 133.433C293.11 133.299 293.366 133.232 293.706 133.232H294.301V133.176C294.301 133.017 294.255 132.9 294.164 132.825C294.072 132.75 293.959 132.713 293.824 132.713C293.701 132.713 293.594 132.742 293.502 132.801C293.411 132.858 293.354 132.942 293.332 133.054H292.742C292.758 132.886 292.814 132.739 292.912 132.614C293.013 132.49 293.142 132.395 293.299 132.329C293.457 132.261 293.633 132.226 293.828 132.226C294.162 132.226 294.425 132.309 294.617 132.474C294.809 132.639 294.905 132.873 294.905 133.176V134.602H294.39L294.334 134.228C294.264 134.353 294.167 134.455 294.041 134.537C293.918 134.618 293.759 134.658 293.564 134.658ZM293.701 134.19C293.874 134.19 294.008 134.134 294.102 134.022C294.2 133.91 294.261 133.771 294.287 133.606H293.772C293.611 133.606 293.496 133.635 293.427 133.695C293.358 133.751 293.323 133.821 293.323 133.905C293.323 133.996 293.358 134.066 293.427 134.116C293.496 134.166 293.588 134.19 293.701 134.19Z" fill="#1A1A1A"/>
<path d="M296.494 134.602C296.248 134.602 296.051 134.543 295.903 134.424C295.755 134.306 295.681 134.095 295.681 133.793V132.783H295.28V132.282H295.681L295.752 131.66H296.286V132.282H296.919V132.783H296.286V133.798C296.286 133.91 296.309 133.988 296.357 134.031C296.407 134.072 296.492 134.092 296.612 134.092H296.905V134.602H296.494Z" fill="#1A1A1A"/>
<path d="M298.516 134.658C298.28 134.658 298.071 134.608 297.888 134.509C297.705 134.409 297.562 134.268 297.458 134.088C297.354 133.907 297.302 133.698 297.302 133.461C297.302 133.221 297.353 133.007 297.453 132.82C297.557 132.633 297.699 132.488 297.878 132.385C298.061 132.279 298.275 132.226 298.521 132.226C298.751 132.226 298.954 132.276 299.13 132.376C299.306 132.476 299.443 132.613 299.541 132.787C299.642 132.959 299.692 133.151 299.692 133.363C299.692 133.397 299.691 133.433 299.687 133.47C299.687 133.508 299.686 133.547 299.683 133.587H297.902C297.915 133.768 297.978 133.91 298.091 134.013C298.208 134.116 298.348 134.167 298.511 134.167C298.634 134.167 298.736 134.141 298.818 134.088C298.903 134.031 298.966 133.96 299.007 133.872H299.621C299.577 134.019 299.503 134.153 299.399 134.275C299.299 134.393 299.173 134.487 299.021 134.555C298.873 134.624 298.705 134.658 298.516 134.658ZM298.521 132.713C298.373 132.713 298.242 132.755 298.129 132.839C298.015 132.92 297.943 133.045 297.912 133.213H299.078C299.069 133.06 299.012 132.939 298.908 132.848C298.804 132.758 298.675 132.713 298.521 132.713Z" fill="#1A1A1A"/>
<path d="M301.652 131.922C301.542 131.922 301.45 131.889 301.378 131.824C301.309 131.759 301.274 131.676 301.274 131.576C301.274 131.476 301.309 131.395 301.378 131.333C301.45 131.267 301.542 131.235 301.652 131.235C301.762 131.235 301.852 131.267 301.921 131.333C301.994 131.395 302.03 131.476 302.03 131.576C302.03 131.676 301.994 131.759 301.921 131.824C301.852 131.889 301.762 131.922 301.652 131.922ZM301.35 134.602V132.282H301.954V134.602H301.35Z" fill="#1A1A1A"/>
<path d="M303.629 134.602C303.383 134.602 303.187 134.543 303.039 134.424C302.891 134.306 302.817 134.095 302.817 133.793V132.783H302.415V132.282H302.817L302.887 131.66H303.421V132.282H304.054V132.783H303.421V133.798C303.421 133.91 303.445 133.988 303.492 134.031C303.542 134.072 303.627 134.092 303.747 134.092H304.04V134.602H303.629Z" fill="#1A1A1A"/>
<path d="M306.157 134.602L305.472 132.282H306.072L306.478 133.952L306.95 132.282H307.621L308.093 133.952L308.504 132.282H309.104L308.414 134.602H307.786L307.285 132.867L306.785 134.602H306.157Z" fill="#1A1A1A"/>
<path d="M309.811 131.922C309.701 131.922 309.61 131.889 309.537 131.824C309.468 131.759 309.433 131.676 309.433 131.576C309.433 131.476 309.468 131.395 309.537 131.333C309.61 131.267 309.701 131.235 309.811 131.235C309.921 131.235 310.011 131.267 310.08 131.333C310.153 131.395 310.189 131.476 310.189 131.576C310.189 131.676 310.153 131.759 310.08 131.824C310.011 131.889 309.921 131.922 309.811 131.922ZM309.509 134.602V132.282H310.113V134.602H309.509Z" fill="#1A1A1A"/>
<path d="M310.744 134.602V131.235H311.349V134.602H310.744Z" fill="#1A1A1A"/>
<path d="M311.967 134.602V131.235H312.571V134.602H311.967Z" fill="#1A1A1A"/>
<path d="M315.703 134.658C315.527 134.658 315.372 134.625 315.24 134.56C315.108 134.494 315.001 134.402 314.919 134.284L314.853 134.602H314.314V131.235H314.919V132.614C314.995 132.512 315.094 132.421 315.217 132.343C315.342 132.265 315.505 132.226 315.703 132.226C315.923 132.226 316.12 132.279 316.293 132.385C316.467 132.491 316.604 132.636 316.704 132.82C316.805 133.004 316.855 133.213 316.855 133.447C316.855 133.681 316.805 133.89 316.704 134.074C316.604 134.254 316.467 134.398 316.293 134.504C316.12 134.607 315.923 134.658 315.703 134.658ZM315.575 134.134C315.768 134.134 315.927 134.07 316.053 133.943C316.178 133.815 316.241 133.65 316.241 133.447C316.241 133.244 316.178 133.077 316.053 132.946C315.927 132.815 315.768 132.75 315.575 132.75C315.38 132.75 315.22 132.815 315.094 132.946C314.971 133.074 314.91 133.24 314.91 133.442C314.91 133.645 314.971 133.812 315.094 133.943C315.22 134.07 315.38 134.134 315.575 134.134Z" fill="#1A1A1A"/>
<path d="M318.534 134.658C318.298 134.658 318.088 134.608 317.906 134.509C317.723 134.409 317.58 134.268 317.476 134.088C317.372 133.907 317.32 133.698 317.32 133.461C317.32 133.221 317.37 133.007 317.471 132.82C317.575 132.633 317.717 132.488 317.896 132.385C318.079 132.279 318.293 132.226 318.538 132.226C318.768 132.226 318.971 132.276 319.148 132.376C319.324 132.476 319.461 132.613 319.559 132.787C319.659 132.959 319.71 133.151 319.71 133.363C319.71 133.397 319.708 133.433 319.705 133.47C319.705 133.508 319.703 133.547 319.7 133.587H317.92C317.932 133.768 317.995 133.91 318.109 134.013C318.225 134.116 318.365 134.167 318.529 134.167C318.652 134.167 318.754 134.141 318.836 134.088C318.921 134.031 318.984 133.96 319.025 133.872H319.639C319.595 134.019 319.521 134.153 319.417 134.275C319.316 134.393 319.19 134.487 319.039 134.555C318.891 134.624 318.723 134.658 318.534 134.658ZM318.538 132.713C318.39 132.713 318.26 132.755 318.146 132.839C318.033 132.92 317.961 133.045 317.929 133.213H319.096C319.086 133.06 319.03 132.939 318.926 132.848C318.822 132.758 318.693 132.713 318.538 132.713Z" fill="#1A1A1A"/>
<path d="M321.344 134.602V132.282H321.882L321.939 132.717C322.024 132.568 322.139 132.449 322.284 132.362C322.432 132.271 322.605 132.226 322.803 132.226V132.858H322.633C322.501 132.858 322.383 132.878 322.279 132.918C322.175 132.959 322.093 133.029 322.033 133.129C321.977 133.229 321.948 133.367 321.948 133.545V134.602H321.344Z" fill="#1A1A1A"/>
<path d="M324.313 134.658C324.077 134.658 323.867 134.608 323.685 134.509C323.502 134.409 323.359 134.268 323.255 134.088C323.151 133.907 323.099 133.698 323.099 133.461C323.099 133.221 323.15 133.007 323.25 132.82C323.354 132.633 323.496 132.488 323.675 132.385C323.858 132.279 324.072 132.226 324.318 132.226C324.548 132.226 324.751 132.276 324.927 132.376C325.103 132.476 325.24 132.613 325.338 132.787C325.439 132.959 325.489 133.151 325.489 133.363C325.489 133.397 325.488 133.433 325.484 133.47C325.484 133.508 325.483 133.547 325.48 133.587H323.699C323.712 133.768 323.775 133.91 323.888 134.013C324.004 134.116 324.145 134.167 324.308 134.167C324.431 134.167 324.533 134.141 324.615 134.088C324.7 134.031 324.763 133.96 324.804 133.872H325.418C325.374 134.019 325.3 134.153 325.196 134.275C325.095 134.393 324.97 134.487 324.818 134.555C324.67 134.624 324.502 134.658 324.313 134.658ZM324.318 132.713C324.17 132.713 324.039 132.755 323.926 132.839C323.812 132.92 323.74 133.045 323.708 133.213H324.875C324.866 133.06 324.809 132.939 324.705 132.848C324.601 132.758 324.472 132.713 324.318 132.713Z" fill="#1A1A1A"/>
<path d="M326.805 134.658C326.604 134.658 326.438 134.627 326.309 134.565C326.18 134.499 326.084 134.413 326.021 134.307C325.958 134.201 325.927 134.084 325.927 133.957C325.927 133.742 326.012 133.567 326.182 133.433C326.352 133.299 326.607 133.232 326.947 133.232H327.542V133.176C327.542 133.017 327.496 132.9 327.405 132.825C327.314 132.75 327.2 132.713 327.065 132.713C326.942 132.713 326.835 132.742 326.744 132.801C326.652 132.858 326.596 132.942 326.574 133.054H325.983C325.999 132.886 326.056 132.739 326.153 132.614C326.254 132.49 326.383 132.395 326.541 132.329C326.698 132.261 326.874 132.226 327.07 132.226C327.403 132.226 327.666 132.309 327.858 132.474C328.05 132.639 328.147 132.873 328.147 133.176V134.602H327.632L327.575 134.228C327.506 134.353 327.408 134.455 327.282 134.537C327.159 134.618 327 134.658 326.805 134.658ZM326.942 134.19C327.115 134.19 327.249 134.134 327.344 134.022C327.441 133.91 327.503 133.771 327.528 133.606H327.013C326.852 133.606 326.737 133.635 326.668 133.695C326.599 133.751 326.564 133.821 326.564 133.905C326.564 133.996 326.599 134.066 326.668 134.116C326.737 134.166 326.829 134.19 326.942 134.19Z" fill="#1A1A1A"/>
<path d="M329.8 134.658C329.58 134.658 329.383 134.605 329.21 134.499C329.037 134.393 328.9 134.248 328.799 134.064C328.698 133.88 328.648 133.671 328.648 133.438C328.648 133.204 328.698 132.996 328.799 132.815C328.9 132.632 329.037 132.488 329.21 132.385C329.383 132.279 329.58 132.226 329.8 132.226C329.977 132.226 330.131 132.259 330.263 132.324C330.395 132.39 330.502 132.482 330.584 132.6V131.235H331.189V134.602H330.65L330.584 134.27C330.509 134.373 330.408 134.463 330.282 134.541C330.159 134.619 329.999 134.658 329.8 134.658ZM329.928 134.134C330.123 134.134 330.282 134.07 330.405 133.943C330.531 133.812 330.594 133.645 330.594 133.442C330.594 133.24 330.531 133.074 330.405 132.946C330.282 132.815 330.123 132.75 329.928 132.75C329.736 132.75 329.577 132.814 329.451 132.942C329.325 133.07 329.262 133.235 329.262 133.438C329.262 133.64 329.325 133.807 329.451 133.938C329.577 134.069 329.736 134.134 329.928 134.134Z" fill="#1A1A1A"/>
<path d="M332.097 135.631L332.64 134.448H332.499L331.587 132.282H332.244L332.9 133.915L333.585 132.282H334.227L332.74 135.631H332.097Z" fill="#1A1A1A"/>
<path d="M336.074 131.922C335.964 131.922 335.872 131.889 335.8 131.824C335.731 131.759 335.696 131.676 335.696 131.576C335.696 131.476 335.731 131.395 335.8 131.333C335.872 131.267 335.964 131.235 336.074 131.235C336.184 131.235 336.274 131.267 336.343 131.333C336.416 131.395 336.452 131.476 336.452 131.576C336.452 131.676 336.416 131.759 336.343 131.824C336.274 131.889 336.184 131.922 336.074 131.922ZM335.772 134.602V132.282H336.376V134.602H335.772Z" fill="#1A1A1A"/>
<path d="M337.007 134.602V132.282H337.541L337.588 132.675C337.661 132.538 337.765 132.429 337.9 132.348C338.038 132.267 338.201 132.226 338.386 132.226C338.676 132.226 338.901 132.317 339.062 132.497C339.222 132.678 339.303 132.943 339.303 133.293V134.602H338.698V133.349C338.698 133.149 338.657 132.996 338.575 132.89C338.493 132.784 338.366 132.731 338.193 132.731C338.023 132.731 337.883 132.791 337.772 132.909C337.665 133.028 337.612 133.193 337.612 133.405V134.602H337.007Z" fill="#1A1A1A"/>
<path d="M340.141 134.635C340.03 134.635 339.939 134.6 339.867 134.532C339.797 134.463 339.763 134.381 339.763 134.284C339.763 134.184 339.797 134.1 339.867 134.031C339.939 133.963 340.03 133.929 340.141 133.929C340.251 133.929 340.34 133.963 340.41 134.031C340.482 134.1 340.518 134.184 340.518 134.284C340.518 134.381 340.482 134.463 340.41 134.532C340.34 134.6 340.251 134.635 340.141 134.635ZM340.141 132.932C340.03 132.932 339.939 132.898 339.867 132.83C339.797 132.761 339.763 132.678 339.763 132.582C339.763 132.482 339.797 132.398 339.867 132.329C339.939 132.261 340.03 132.226 340.141 132.226C340.251 132.226 340.34 132.261 340.41 132.329C340.482 132.398 340.518 132.482 340.518 132.582C340.518 132.678 340.482 132.761 340.41 132.83C340.34 132.898 340.251 132.932 340.141 132.932Z" fill="#1A1A1A"/>
<path d="M292.684 142.824V140.233L292.141 140.36V139.901L292.939 139.55H293.312V142.824H292.684Z" fill="#1A1A1A"/>
<path d="M295.139 142.88C294.896 142.88 294.687 142.838 294.511 142.754C294.337 142.67 294.2 142.555 294.1 142.408C294.002 142.258 293.945 142.09 293.93 141.903H294.52C294.548 142.037 294.618 142.149 294.728 142.24C294.838 142.327 294.975 142.371 295.139 142.371C295.315 142.371 295.458 142.307 295.569 142.179C295.682 142.051 295.739 141.892 295.739 141.702C295.739 141.505 295.682 141.349 295.569 141.234C295.458 141.119 295.318 141.061 295.148 141.061C295.006 141.061 294.884 141.095 294.78 141.164C294.676 141.233 294.602 141.318 294.558 141.421H293.977L294.26 139.55H296.093V140.074H294.714L294.563 140.832C294.632 140.757 294.726 140.696 294.846 140.65C294.966 140.6 295.099 140.575 295.247 140.575C295.484 140.575 295.68 140.628 295.838 140.734C295.995 140.837 296.115 140.974 296.197 141.145C296.279 141.314 296.319 141.498 296.319 141.697C296.319 141.925 296.269 142.127 296.168 142.305C296.071 142.483 295.932 142.623 295.753 142.726C295.576 142.829 295.372 142.88 295.139 142.88Z" fill="#1A1A1A"/>
<path d="M297.993 142.824V140.505H298.527L298.579 140.818C298.655 140.706 298.754 140.617 298.877 140.551C299.003 140.483 299.147 140.448 299.311 140.448C299.673 140.448 299.93 140.587 300.081 140.865C300.166 140.737 300.279 140.635 300.421 140.561C300.566 140.486 300.723 140.448 300.893 140.448C301.199 140.448 301.433 140.539 301.597 140.72C301.761 140.901 301.843 141.166 301.843 141.515V142.824H301.238V141.571C301.238 141.371 301.199 141.219 301.12 141.113C301.044 141.007 300.926 140.954 300.766 140.954C300.602 140.954 300.47 141.013 300.369 141.131C300.271 141.25 300.223 141.415 300.223 141.627V142.824H299.618V141.571C299.618 141.371 299.579 141.219 299.5 141.113C299.421 141.007 299.3 140.954 299.136 140.954C298.976 140.954 298.845 141.013 298.744 141.131C298.647 141.25 298.598 141.415 298.598 141.627V142.824H297.993Z" fill="#1A1A1A"/>
<path d="M302.742 140.144C302.632 140.144 302.541 140.112 302.469 140.046C302.399 139.981 302.365 139.898 302.365 139.798C302.365 139.699 302.399 139.617 302.469 139.555C302.541 139.49 302.632 139.457 302.742 139.457C302.853 139.457 302.942 139.49 303.012 139.555C303.084 139.617 303.12 139.699 303.12 139.798C303.12 139.898 303.084 139.981 303.012 140.046C302.942 140.112 302.853 140.144 302.742 140.144ZM302.44 142.824V140.505H303.045V142.824H302.44Z" fill="#1A1A1A"/>
<path d="M303.676 142.824V140.505H304.209L304.257 140.897C304.329 140.76 304.433 140.651 304.568 140.57C304.707 140.489 304.869 140.448 305.055 140.448C305.345 140.448 305.57 140.539 305.73 140.72C305.891 140.901 305.971 141.166 305.971 141.515V142.824H305.367V141.571C305.367 141.371 305.326 141.219 305.244 141.113C305.162 141.007 305.034 140.954 304.861 140.954C304.691 140.954 304.551 141.013 304.441 141.131C304.334 141.25 304.28 141.415 304.28 141.627V142.824H303.676Z" fill="#1A1A1A"/>
<path d="M307.428 142.88C307.135 142.88 306.908 142.79 306.748 142.609C306.59 142.428 306.512 142.163 306.512 141.814V140.505H307.111V141.758C307.111 141.957 307.152 142.11 307.234 142.216C307.316 142.322 307.445 142.375 307.621 142.375C307.788 142.375 307.925 142.316 308.032 142.198C308.143 142.079 308.198 141.914 308.198 141.702V140.505H308.802V142.824H308.268L308.221 142.431C308.149 142.569 308.043 142.678 307.905 142.759C307.769 142.84 307.61 142.88 307.428 142.88Z" fill="#1A1A1A"/>
<path d="M310.467 142.824C310.221 142.824 310.024 142.765 309.876 142.647C309.728 142.528 309.654 142.318 309.654 142.015V141.005H309.253V140.505H309.654L309.725 139.883H310.259V140.505H310.892V141.005H310.259V142.02C310.259 142.132 310.282 142.21 310.33 142.254C310.38 142.294 310.465 142.314 310.585 142.314H310.878V142.824H310.467Z" fill="#1A1A1A"/>
<path d="M312.489 142.88C312.253 142.88 312.043 142.831 311.861 142.731C311.678 142.631 311.535 142.491 311.431 142.31C311.327 142.129 311.275 141.92 311.275 141.683C311.275 141.443 311.326 141.229 311.426 141.042C311.53 140.855 311.672 140.71 311.851 140.607C312.034 140.501 312.248 140.448 312.494 140.448C312.724 140.448 312.927 140.498 313.103 140.598C313.279 140.698 313.416 140.835 313.514 141.01C313.615 141.181 313.665 141.373 313.665 141.585C313.665 141.619 313.664 141.655 313.66 141.692C313.66 141.73 313.659 141.769 313.656 141.809H311.875C311.888 141.99 311.951 142.132 312.064 142.235C312.18 142.338 312.321 142.389 312.484 142.389C312.607 142.389 312.709 142.363 312.791 142.31C312.876 142.254 312.939 142.182 312.98 142.095H313.594C313.55 142.241 313.476 142.375 313.372 142.497C313.271 142.615 313.146 142.709 312.994 142.778C312.846 142.846 312.678 142.88 312.489 142.88ZM312.494 140.935C312.346 140.935 312.215 140.977 312.102 141.061C311.988 141.142 311.916 141.267 311.884 141.435H313.051C313.042 141.282 312.985 141.161 312.881 141.07C312.777 140.98 312.648 140.935 312.494 140.935Z" fill="#1A1A1A"/>
<path d="M315.142 142.88C314.934 142.88 314.751 142.848 314.594 142.782C314.436 142.714 314.311 142.62 314.216 142.502C314.122 142.383 314.065 142.246 314.046 142.09H314.655C314.674 142.18 314.725 142.258 314.806 142.324C314.891 142.386 315 142.417 315.132 142.417C315.265 142.417 315.361 142.391 315.42 142.338C315.483 142.285 315.515 142.224 315.515 142.155C315.515 142.056 315.471 141.989 315.383 141.954C315.294 141.917 315.172 141.881 315.014 141.847C314.913 141.825 314.811 141.798 314.707 141.767C314.603 141.736 314.507 141.697 314.419 141.65C314.334 141.6 314.265 141.538 314.211 141.463C314.158 141.385 314.131 141.29 314.131 141.178C314.131 140.972 314.213 140.799 314.377 140.659C314.544 140.519 314.777 140.448 315.076 140.448C315.353 140.448 315.573 140.512 315.737 140.64C315.904 140.768 316.003 140.944 316.034 141.169H315.463C315.428 140.997 315.298 140.911 315.071 140.911C314.958 140.911 314.869 140.933 314.806 140.977C314.747 141.021 314.717 141.075 314.717 141.141C314.717 141.209 314.762 141.264 314.854 141.304C314.945 141.345 315.066 141.382 315.217 141.417C315.381 141.454 315.531 141.496 315.666 141.543C315.805 141.586 315.915 141.653 315.997 141.744C316.079 141.831 316.119 141.957 316.119 142.123C316.123 142.266 316.085 142.396 316.006 142.511C315.927 142.626 315.814 142.717 315.666 142.782C315.518 142.848 315.343 142.88 315.142 142.88Z" fill="#1A1A1A"/>
<path d="M338.882 151.559H284.952C284.758 151.559 284.599 151.402 284.599 151.209V147.514C284.599 147.322 284.758 147.164 284.952 147.164H338.882C339.077 147.164 339.236 147.322 339.236 147.514V151.209C339.236 151.402 339.077 151.559 338.882 151.559Z" fill="#FAFAFA"/>
<path d="M287.83 93.1766V96.5453C287.83 98.898 289.596 100.804 291.875 101.122V107.226C291.875 110.469 294.54 113.14 297.844 113.14H310.332C313.607 113.14 316.302 110.469 316.302 107.226V101.122C318.58 100.836 320.379 98.898 320.379 96.5453V93.1766H287.83ZM291.875 99.2803H291.745C290.365 99.2803 289.242 98.1681 289.242 96.8019V94.7994H291.875V99.2803ZM314.152 107.133C314.152 109.55 312.162 111.52 309.722 111.52H298.101C295.66 111.52 293.67 109.55 293.67 107.133V94.7994H314.152V107.133ZM318.84 96.8019C318.84 98.1681 317.716 99.2803 316.337 99.2803H316.207V94.7994H318.84V96.8019Z" fill="#FFBF42"/>
<path d="M299.789 91.6848H297.464C297.343 91.6848 297.243 91.5859 297.243 91.4656V85.0891C297.243 84.9688 297.343 84.8699 297.464 84.8699H299.789C299.91 84.8699 300.01 84.9688 300.01 85.0891V91.4656C300.01 91.5859 299.91 91.6848 299.789 91.6848Z" fill="#FFBF42"/>
<path d="M304.717 91.6848H302.392C302.27 91.6848 302.17 91.5859 302.17 91.4656V85.0891C302.17 84.9688 302.27 84.8699 302.392 84.8699H304.717C304.838 84.8699 304.938 84.9688 304.938 85.0891V91.4656C304.935 91.5859 304.838 91.6848 304.717 91.6848Z" fill="#FFBF42"/>
<path d="M309.741 91.6848H307.417C307.295 91.6848 307.195 91.5859 307.195 91.4656V85.0891C307.195 84.9688 307.295 84.8699 307.417 84.8699H309.741C309.863 84.8699 309.963 84.9688 309.963 85.0891V91.4656C309.96 91.5859 309.863 91.6848 309.741 91.6848Z" fill="#FFBF42"/>
<path d="M324.917 151.559H270.987C270.792 151.559 270.633 151.402 270.633 151.209V147.514C270.633 147.322 270.792 147.164 270.987 147.164H324.917C325.111 147.164 325.27 147.322 325.27 147.514V151.209C325.27 151.402 325.111 151.559 324.917 151.559Z" fill="#FFBF42"/>
</g>
<defs>
<clipPath id="clip0">
<rect width="432" height="240" fill="white"/>
</clipPath>
</defs>
</svg>
