<svg width="120" height="120" viewBox="0 0 120 120" fill="none" xmlns="http://www.w3.org/2000/svg">
<rect width="120" height="120" fill="#FAFAFA"/>
<path fill-rule="evenodd" clip-rule="evenodd" d="M38.0234 58.9766C38.0079 59.3158 38 59.657 38 60C38 72.1503 47.8497 82 60 82C72.1503 82 82 72.1503 82 60C82 47.8497 72.1503 38 60 38C59.657 38 59.3158 38.0079 58.9766 38.0234L56.7348 40.2652C57.7973 40.0907 58.8881 40 60 40C71.0457 40 80 48.9543 80 60C80 71.0457 71.0457 80 60 80C48.9543 80 40 71.0457 40 60C40 58.8881 40.0907 57.7973 40.2652 56.7348L38.0234 58.9766Z" fill="#353FA8"/>
<path fill-rule="evenodd" clip-rule="evenodd" d="M56.5697 42.3265C55.6752 42.4991 54.8044 42.7379 53.9624 43.0376L43.0376 53.9624C42.7379 54.8044 42.4991 55.6752 42.3265 56.5697L56.5697 42.3265ZM42.0033 59.6503C42.0011 59.7666 42 59.8832 42 60C42 69.9411 50.0589 78 60 78C69.9411 78 78 69.9411 78 60C78 50.0589 69.9411 42 60 42C59.8833 42 59.7669 42.0011 59.6507 42.0033C59.1182 44.9086 58.015 47.6143 56.4616 50H68C69.1046 50 70 50.8954 70 52V68C70 69.1046 69.1046 70 68 70H52C50.8954 70 50 69.1046 50 68V56.4614C47.6143 58.0148 44.9086 59.1179 42.0033 59.6503Z" fill="#353FA8"/>
<rect x="51.5" y="51.5" width="5" height="5" rx="0.5" stroke="#353FA8"/>
<rect x="63.5" y="51.5" width="5" height="5" rx="0.5" stroke="#353FA8"/>
<rect x="63.5" y="63.5" width="5" height="5" rx="0.5" stroke="#353FA8"/>
<rect x="51.5" y="63.5" width="5" height="5" rx="0.5" stroke="#353FA8"/>
<rect x="52" y="61" width="1" height="1" fill="#353FA8"/>
<rect x="63" y="61" width="3" height="1" fill="#353FA8"/>
<rect x="58" y="61" width="1" height="1" fill="#353FA8"/>
<rect x="61" y="61" width="1" height="1" fill="#353FA8"/>
<rect x="51" y="60" width="1" height="1" fill="#353FA8"/>
<rect x="64" y="60" width="1" height="1" fill="#353FA8"/>
<rect x="57" y="60" width="1" height="1" fill="#353FA8"/>
<rect x="60" y="60" width="1" height="1" fill="#353FA8"/>
<rect x="51" y="58" width="5" height="1" fill="#353FA8"/>
<rect x="61" y="59" width="5" height="1" fill="#353FA8"/>
<rect x="63" y="58" width="1" height="1" fill="#353FA8"/>
<rect x="65" y="58" width="1" height="1" fill="#1A1A1A"/>
<rect x="56" y="59" width="5" height="1" fill="#353FA8"/>
<rect x="53" y="53" width="2" height="2" fill="#353FA8"/>
<rect x="65" y="53" width="2" height="2" fill="#353FA8"/>
<rect x="65" y="65" width="2" height="2" fill="#353FA8"/>
<rect x="53" y="65" width="2" height="2" fill="#353FA8"/>
<rect x="53" y="59" width="1" height="2" fill="#353FA8"/>
<rect x="66" y="60" width="1" height="1" fill="#353FA8"/>
<rect x="59" y="60" width="1" height="1" fill="#353FA8"/>
<rect x="62" y="60" width="1" height="1" fill="#353FA8"/>
<rect x="58" y="57" width="1" height="2" fill="#353FA8"/>
<rect x="58" y="66" width="1" height="2" fill="#353FA8"/>
<rect x="58" y="54" width="1" height="1" fill="#353FA8"/>
<rect x="58" y="63" width="1" height="1" fill="#353FA8"/>
<rect x="60" y="56" width="1" height="1" fill="#353FA8"/>
<rect x="60" y="65" width="1" height="1" fill="#353FA8"/>
<rect x="60" y="54" width="1" height="1" fill="#353FA8"/>
<rect x="60" y="63" width="1" height="1" fill="#353FA8"/>
<rect x="59" y="62" width="1" height="1" fill="#353FA8"/>
<rect x="61" y="51" width="1" height="1" fill="#353FA8"/>
<rect x="61" y="57" width="1" height="1" fill="#353FA8"/>
<rect x="61" y="66" width="1" height="1" fill="#353FA8"/>
<rect x="60" y="67" width="1" height="1" fill="#353FA8"/>
<rect x="59" y="68" width="3" height="1" fill="#353FA8"/>
<rect x="58" y="51" width="2" height="1" fill="#353FA8"/>
<rect x="59" y="52" width="2" height="1" fill="#353FA8"/>
<rect x="59" y="55" width="1" height="3" fill="#353FA8"/>
<rect x="59" y="64" width="1" height="3" fill="#353FA8"/>
<rect x="68" y="59" width="1" height="1" fill="#353FA8"/>
<rect x="55" y="60" width="1" height="1" fill="#353FA8"/>
<rect x="67" y="58" width="1" height="1" fill="#353FA8"/>
<rect x="54" y="61" width="2" height="1" fill="#353FA8"/>
<rect x="67" y="61" width="2" height="1" fill="#353FA8"/>
<rect x="60" y="58" width="1" height="1" fill="#353FA8"/>
<rect x="61" y="53" width="1" height="3" fill="#353FA8"/>
<rect x="61" y="62" width="1" height="3" fill="#353FA8"/>
<path fill-rule="evenodd" clip-rule="evenodd" d="M58.9943 37.9019C58.5388 49.344 49.3445 58.5384 37.9023 58.9938L58.9943 37.9019Z" fill="#353FA8"/>
</svg>
