<svg width="120" height="120" viewBox="0 0 120 120" fill="none" xmlns="http://www.w3.org/2000/svg">
<rect width="120" height="120" fill="#FAFAFA"/>
<path d="M74 47L79 42L74.875 43L70.75 42L66.625 43L62.5 42L58.375 43L54.25 42L50.125 43L46 42L41 47L45.125 48L49.25 47L53.375 48L57.5 47L61.625 48L65.75 47L69.875 48L74 47Z" stroke="#353FA8" stroke-width="2" stroke-linejoin="round"/>
<path d="M74 47L79 42V73L74 78H41V47" stroke="#353FA8" stroke-width="2" stroke-linejoin="round"/>
<path d="M74 47V78" stroke="#353FA8" stroke-linejoin="round"/>
<path d="M46 42L46 48" stroke="#353FA8" stroke-linejoin="round"/>
<path d="M64.4517 61.6418C63.8443 61.3396 57.6682 58.2685 57.3667 58.1205C57.0106 57.9452 56.61 57.9619 56.2923 58.1658C56.01 58.3471 55.8415 58.6507 55.8415 58.977V59.7671C54.2218 58.9619 52.67 58.1915 52.5252 58.1205C52.1705 57.9452 51.7685 57.9619 51.4508 58.1658C51.1685 58.3471 51 58.6492 51 58.977V66.0332C51 66.3595 51.1581 66.648 51.433 66.8278C51.6089 66.9426 51.8143 67 52.0212 67C52.1853 67 52.3508 66.9637 52.503 66.8912C52.7336 66.781 54.2587 66.0241 55.8401 65.2371V66.0332C55.8401 66.3595 55.9982 66.648 56.2731 66.8278C56.449 66.9426 56.6544 67 56.8613 67C57.0253 67 57.1909 66.9637 57.3431 66.8912C57.8352 66.6556 64.134 63.5195 64.4532 63.3563C64.7916 63.1841 65.0015 62.8548 65 62.4953C65.0015 62.1373 64.7901 61.811 64.4517 61.6418ZM52.0656 65.932C52.0552 65.9365 52.0449 65.9395 52.0345 65.9395V59.0586C52.0463 59.0601 52.0596 59.0646 52.0759 59.0722C52.234 59.1507 54.0696 60.0616 55.8401 60.9423L56.8746 61.4575V63.5452C55.1336 64.4108 52.2858 65.8262 52.0656 65.932ZM56.8746 61.4575C57.7938 61.9137 58.5889 62.3095 58.9717 62.4998C58.6052 62.6841 57.8042 63.0829 56.8746 63.5452V62.5013V61.4575ZM56.9056 65.932C56.8953 65.9365 56.8849 65.9395 56.8746 65.941V64.722C58.2638 64.0301 59.4786 63.4243 59.6146 63.3563C59.953 63.1841 60.1629 62.8548 60.1614 62.4953C60.1599 62.1388 59.9486 61.8125 59.6101 61.6433C59.3619 61.5194 58.1929 60.9378 56.8731 60.2822V59.0586C56.8849 59.0601 56.8982 59.0646 56.9145 59.0722C57.1968 59.2112 62.5925 61.894 63.8088 62.4998C62.6635 63.0754 57.2973 65.7447 56.9056 65.932Z" fill="#353FA8"/>
</svg>
