<svg width="40" height="40" viewBox="0 0 40 40" fill="none" xmlns="http://www.w3.org/2000/svg">
<rect x="2" y="2" width="36" height="36" rx="18" stroke="#1A1A1A" stroke-width="4"/>
<path d="M14.3685 28V25.768C15.3925 24.92 16.3845 24.08 17.3445 23.248C18.3205 22.416 19.1845 21.592 19.9365 20.776C20.7045 19.96 21.3125 19.168 21.7605 18.4C22.2245 17.616 22.4565 16.856 22.4565 16.12C22.4565 15.432 22.2645 14.824 21.8805 14.296C21.5125 13.768 20.8965 13.504 20.0325 13.504C19.1525 13.504 18.4885 13.792 18.0405 14.368C17.5925 14.944 17.3685 15.64 17.3685 16.456H14.3925C14.4245 15.224 14.6965 14.2 15.2085 13.384C15.7205 12.552 16.4005 11.936 17.2485 11.536C18.0965 11.12 19.0485 10.912 20.1045 10.912C21.8165 10.912 23.1445 11.384 24.0885 12.328C25.0485 13.256 25.5285 14.464 25.5285 15.952C25.5285 16.88 25.3125 17.784 24.8805 18.664C24.4645 19.544 23.9125 20.392 23.2245 21.208C22.5365 22.024 21.7925 22.792 20.9925 23.512C20.1925 24.216 19.4165 24.872 18.6645 25.48H25.9365V28H14.3685Z" fill="#1A1A1A"/>
</svg>
