<svg width="40" height="40" viewBox="0 0 40 40" fill="none" xmlns="http://www.w3.org/2000/svg">
<rect x="2" y="2" width="36" height="36" rx="18" stroke="#1A1A1A" stroke-width="4"/>
<path d="M19.9796 28.288C18.8756 28.288 17.8756 28.096 16.9796 27.712C16.0836 27.312 15.3636 26.704 14.8196 25.888C14.2756 25.072 13.9876 24.048 13.9556 22.816H16.9796C16.9956 23.632 17.2596 24.32 17.7716 24.88C18.2996 25.424 19.0356 25.696 19.9796 25.696C20.8756 25.696 21.5636 25.448 22.0436 24.952C22.5236 24.456 22.7636 23.832 22.7636 23.08C22.7636 22.2 22.4436 21.536 21.8036 21.088C21.1796 20.624 20.3716 20.392 19.3796 20.392H18.1316V17.872H19.4036C20.2196 17.872 20.8996 17.68 21.4436 17.296C21.9876 16.912 22.2596 16.344 22.2596 15.592C22.2596 14.968 22.0516 14.472 21.6356 14.104C21.2356 13.72 20.6756 13.528 19.9556 13.528C19.1716 13.528 18.5556 13.76 18.1076 14.224C17.6756 14.688 17.4356 15.256 17.3876 15.928H14.3876C14.4516 14.376 14.9876 13.152 15.9956 12.256C17.0196 11.36 18.3396 10.912 19.9556 10.912C21.1076 10.912 22.0756 11.12 22.8596 11.536C23.6596 11.936 24.2596 12.472 24.6596 13.144C25.0756 13.816 25.2836 14.56 25.2836 15.376C25.2836 16.32 25.0196 17.12 24.4916 17.776C23.9796 18.416 23.3396 18.848 22.5716 19.072C23.5156 19.264 24.2836 19.728 24.8756 20.464C25.4676 21.184 25.7636 22.096 25.7636 23.2C25.7636 24.128 25.5396 24.976 25.0916 25.744C24.6436 26.512 23.9876 27.128 23.1236 27.592C22.2756 28.056 21.2276 28.288 19.9796 28.288Z" fill="#1A1A1A"/>
</svg>
