<svg width="176" height="32" viewBox="0 0 176 32" fill="none" xmlns="http://www.w3.org/2000/svg">
<rect width="176" height="32" fill="#353FA8"/>
<path d="M49.9365 22.6711V10.647H52.6691L52.9346 12.2698C53.3211 11.6872 53.8325 11.2257 54.4727 10.8777C55.109 10.5297 55.8468 10.3577 56.6861 10.3577C58.5404 10.3577 59.8559 11.0772 60.6289 12.5161C61.0661 11.8553 61.6477 11.3274 62.3816 10.9403C63.1155 10.5532 63.9197 10.3577 64.7902 10.3577C66.3556 10.3577 67.558 10.8269 68.3973 11.7615C69.2366 12.6999 69.6543 14.0724 69.6543 15.8829V22.6711H66.5586V16.1761C66.5586 15.1438 66.3595 14.35 65.9653 13.8026C65.571 13.2552 64.962 12.9775 64.1383 12.9775C63.299 12.9775 62.6276 13.2865 62.1162 13.9004C61.6087 14.5143 61.355 15.3706 61.355 16.4694V22.675H58.2593V16.1761C58.2593 15.1438 58.0563 14.35 57.6542 13.8026C57.2521 13.2552 56.6314 12.9775 55.7921 12.9775C54.9684 12.9775 54.3048 13.2865 53.7973 13.9004C53.2898 14.5143 53.0361 15.3706 53.0361 16.4694V22.675H49.9365V22.6711Z" fill="white"/>
<path d="M78.4376 22.9597C77.2275 22.9597 76.154 22.7016 75.221 22.1855C74.2841 21.6693 73.5502 20.942 73.0193 20.0036C72.4884 19.0651 72.219 17.9859 72.219 16.7541C72.219 15.5107 72.4805 14.4041 73.0036 13.4343C73.5267 12.4646 74.2528 11.7099 75.1819 11.1664C76.111 10.6267 77.2041 10.353 78.4611 10.353C79.64 10.353 80.6784 10.6111 81.5841 11.1273C82.4858 11.6434 83.1924 12.3512 83.6999 13.2466C84.2074 14.1421 84.4611 15.1431 84.4611 16.238C84.4611 16.4178 84.4572 16.6016 84.4494 16.7971C84.4416 16.9927 84.4299 17.1921 84.4143 17.4032H75.2912C75.3537 18.3417 75.6816 19.0768 76.2711 19.6086C76.8605 20.1404 77.5749 20.4102 78.4142 20.4102C79.0427 20.4102 79.5697 20.2695 79.9991 19.9879C80.4247 19.7064 80.7448 19.3388 80.9556 18.8852H84.102C83.8756 19.6438 83.5008 20.3359 82.9777 20.9577C82.4546 21.5794 81.8066 22.0682 81.0414 22.424C80.2724 22.7837 79.4058 22.9597 78.4376 22.9597ZM78.4611 12.8791C77.7037 12.8791 77.0323 13.0941 76.4546 13.5203C75.8729 13.9505 75.502 14.5996 75.342 15.4716H81.3186C81.2718 14.6817 80.979 14.0482 80.4481 13.5829C79.9133 13.1137 79.2535 12.8791 78.4611 12.8791Z" fill="white"/>
<path d="M87.0768 22.6702V10.6462H89.8094L90.0514 12.6834C90.4223 11.9717 90.9571 11.4087 91.6598 10.9864C92.3624 10.568 93.1861 10.3568 94.1386 10.3568C95.6221 10.3568 96.7776 10.826 97.5974 11.7606C98.4211 12.6991 98.8309 14.0716 98.8309 15.882V22.6702H95.7353V16.1753C95.7353 15.143 95.5245 14.3492 95.1068 13.8018C94.6891 13.2543 94.0332 12.9767 93.1471 12.9767C92.2766 12.9767 91.5622 13.2856 91.0039 13.8995C90.4457 14.5134 90.1685 15.3698 90.1685 16.4685V22.6741H87.0768V22.6702Z" fill="white"/>
<path d="M106.287 22.9597C104.788 22.9597 103.629 22.4904 102.817 21.5559C102.001 20.6174 101.595 19.2449 101.595 17.4345V10.6462H104.667V17.1412C104.667 18.1735 104.878 18.9673 105.295 19.5147C105.713 20.0622 106.377 20.3398 107.279 20.3398C108.133 20.3398 108.84 20.0348 109.394 19.417C109.953 18.803 110.23 17.9467 110.23 16.8479V10.6462H113.325V22.6664H110.593L110.351 20.6291C109.98 21.3408 109.445 21.9039 108.742 22.3262C108.04 22.7485 107.224 22.9597 106.287 22.9597Z" fill="white"/>
<path d="M115.722 22.6703V20.1756L121.843 13.2192H115.793V10.6462H125.372V13.141L119.154 20.0973H125.493V22.6664H115.722V22.6703Z" fill="white"/>
<path d="M132.223 22.9596C131.193 22.9596 130.346 22.7954 129.682 22.463C129.022 22.1306 128.531 21.6927 128.207 21.1413C127.883 20.5939 127.722 19.9878 127.722 19.323C127.722 18.2086 128.16 17.3053 129.03 16.6093C129.901 15.9133 131.209 15.5653 132.95 15.5653H135.998V15.2759C135.998 14.4509 135.764 13.8448 135.296 13.4576C134.827 13.0705 134.246 12.875 133.555 12.875C132.926 12.875 132.376 13.0236 131.911 13.3247C131.443 13.6258 131.154 14.0637 131.041 14.6464H128.015C128.097 13.7744 128.39 13.0158 128.897 12.3667C129.405 11.7215 130.061 11.2249 130.869 10.8769C131.677 10.5289 132.579 10.3568 133.578 10.3568C135.288 10.3568 136.635 10.7869 137.618 11.6433C138.602 12.4996 139.094 13.7118 139.094 15.2798V22.6702H136.455L136.166 20.7307C135.811 21.3759 135.315 21.9116 134.679 22.33C134.043 22.7484 133.227 22.9596 132.223 22.9596ZM132.926 20.5352C133.812 20.5352 134.503 20.2459 134.995 19.6632C135.487 19.0806 135.799 18.3611 135.928 17.5048H133.289C132.466 17.5048 131.876 17.6534 131.525 17.9545C131.169 18.2555 130.994 18.6192 130.994 19.0571C130.994 19.5264 131.169 19.89 131.525 20.1481C131.88 20.4062 132.344 20.5352 132.926 20.5352Z" fill="white"/>
<path d="M142.049 27.9999V10.6462H144.809L145.149 12.3667C145.535 11.8349 146.047 11.3657 146.687 10.9629C147.323 10.5601 148.151 10.3568 149.166 10.3568C150.294 10.3568 151.301 10.6305 152.191 11.1819C153.077 11.7332 153.78 12.484 154.295 13.4342C154.811 14.3883 155.068 15.4714 155.068 16.6836C155.068 17.8958 154.811 18.975 154.295 19.9174C153.78 20.8637 153.077 21.6066 152.191 22.1463C151.305 22.6859 150.294 22.9596 149.166 22.9596C148.264 22.9596 147.471 22.7914 146.796 22.4513C146.117 22.1111 145.57 21.634 145.153 21.0201V27.9999H142.049ZM148.51 20.2459C149.494 20.2459 150.309 19.9135 150.954 19.2527C151.598 18.5918 151.922 17.7355 151.922 16.6836C151.922 15.6318 151.598 14.7676 150.954 14.0911C150.309 13.4107 149.494 13.0744 148.51 13.0744C147.511 13.0744 146.691 13.4107 146.054 14.0794C145.418 14.7519 145.098 15.6122 145.098 16.6602C145.098 17.712 145.418 18.5723 146.054 19.2409C146.691 19.9096 147.511 20.2459 148.51 20.2459Z" fill="white"/>
<path d="M157.824 27.9999V10.6462H160.584L160.924 12.3667C161.31 11.8349 161.822 11.3657 162.462 10.9629C163.098 10.5601 163.926 10.3568 164.941 10.3568C166.069 10.3568 167.076 10.6305 167.966 11.1819C168.852 11.7332 169.555 12.484 170.07 13.4342C170.586 14.3883 170.843 15.4714 170.843 16.6836C170.843 17.8958 170.586 18.975 170.07 19.9174C169.555 20.8637 168.852 21.6066 167.966 22.1463C167.08 22.6859 166.069 22.9596 164.941 22.9596C164.039 22.9596 163.247 22.7914 162.571 22.4513C161.892 22.1111 161.345 21.634 160.928 21.0201V27.9999H157.824ZM164.285 20.2459C165.269 20.2459 166.085 19.9135 166.729 19.2527C167.373 18.5918 167.697 17.7355 167.697 16.6836C167.697 15.6318 167.373 14.7676 166.729 14.0911C166.085 13.4107 165.269 13.0744 164.285 13.0744C163.286 13.0744 162.466 13.4107 161.83 14.0794C161.193 14.7519 160.873 15.6122 160.873 16.6602C160.873 17.712 161.193 18.5723 161.83 19.2409C162.466 19.9096 163.286 20.2459 164.285 20.2459Z" fill="white"/>
<path d="M35.5318 13.4267C33.9274 12.6446 17.6137 4.69506 16.8173 4.31185C15.8765 3.85826 14.8186 3.90128 13.9793 4.42916C13.2337 4.89839 12.7886 5.68436 12.7886 6.52897V8.57404C8.51014 6.48987 4.41122 4.49564 4.02866 4.31185C3.09176 3.85826 2.02994 3.90128 1.19064 4.42916C0.445026 4.89839 0 5.68045 0 6.52897V24.7938C0 25.6384 0.4177 26.3853 1.14379 26.8506C1.60834 27.1478 2.15096 27.2964 2.69748 27.2964C3.1308 27.2964 3.56801 27.2025 3.9701 27.0148C4.57908 26.7294 8.60774 24.7704 12.7847 22.7331V24.7938C12.7847 25.6384 13.2024 26.3853 13.9285 26.8506C14.3931 27.1478 14.9357 27.2964 15.4822 27.2964C15.9155 27.2964 16.3528 27.2025 16.7548 27.0148C18.0548 26.4048 34.6925 18.2871 35.5357 17.8648C36.4297 17.4191 36.984 16.5666 36.9801 15.636C36.984 14.7092 36.4258 13.8646 35.5318 13.4267ZM2.81459 24.5318C2.78727 24.5436 2.75994 24.5514 2.73262 24.5514V6.74013C2.76385 6.74404 2.79898 6.75577 2.84192 6.77532C3.25962 6.97865 8.10806 9.33654 12.7847 11.6162V19.687C8.18614 21.9276 3.39625 24.2581 2.81459 24.5318ZM15.5174 12.9496C17.9455 14.1305 20.0457 15.155 21.0568 15.6477C20.0886 16.1248 17.9728 17.1571 15.5174 18.3536V12.9496ZM15.5993 24.5318C15.572 24.5436 15.5447 24.5514 15.5174 24.5553V21.3997C19.1869 19.6088 22.3957 18.0408 22.7549 17.8648C23.6488 17.4191 24.2032 16.5666 24.1993 15.636C24.1954 14.7132 23.6371 13.8685 22.7432 13.4306C22.0873 13.1099 18.9995 11.6045 15.5134 9.90744V6.74013C15.5447 6.74404 15.5798 6.75577 15.6228 6.77532C16.3684 7.13506 30.6209 14.0797 33.8337 15.6477C30.8083 17.1375 16.6338 24.047 15.5993 24.5318Z" fill="white"/>
</svg>
