<svg id="SvgjsSvg1035" width="288" height="288" xmlns="http://www.w3.org/2000/svg" version="1.1" xmlns:xlink="http://www.w3.org/1999/xlink" xmlns:svgjs="http://svgjs.com/svgjs"><defs id="SvgjsDefs1036"></defs><g id="SvgjsG1037"><svg xmlns="http://www.w3.org/2000/svg" width="288" height="288" fill="none" viewBox="0 0 37 24"><path fill="#353fa8" d="M35.5318 9.42668C33.9274 8.64462 17.6137 0.69506 16.8173 0.311854C15.8765 -0.141737 14.8186 -0.0987238 13.9793 0.429162C13.2337 0.898393 12.7886 1.68436 12.7886 2.52897V4.57404C8.51014 2.48987 4.41122 0.495636 4.02866 0.311854C3.09176 -0.141737 2.02994 -0.0987238 1.19064 0.429162C0.445026 0.898393 0 1.68045 0 2.52897V20.7938C0 21.6384 0.4177 22.3853 1.14379 22.8506C1.60834 23.1478 2.15096 23.2964 2.69748 23.2964C3.1308 23.2964 3.56801 23.2025 3.9701 23.0148C4.57908 22.7294 8.60774 20.7704 12.7847 18.7331V20.7938C12.7847 21.6384 13.2024 22.3853 13.9285 22.8506C14.3931 23.1478 14.9357 23.2964 15.4822 23.2964C15.9155 23.2964 16.3528 23.2025 16.7548 23.0148C18.0548 22.4048 34.6925 14.2871 35.5357 13.8648C36.4297 13.4191 36.984 12.5666 36.9801 11.636C36.984 10.7092 36.4258 9.86463 35.5318 9.42668ZM2.81459 20.5318C2.78727 20.5436 2.75994 20.5514 2.73262 20.5514V2.74013C2.76385 2.74404 2.79898 2.75577 2.84192 2.77532C3.25962 2.97865 8.10806 5.33654 12.7847 7.61623V15.687C8.18614 17.9276 3.39625 20.2581 2.81459 20.5318ZM15.5174 8.94963C17.9455 10.1305 20.0457 11.155 21.0568 11.6477C20.0886 12.1248 17.9728 13.1571 15.5174 14.3536V8.94963ZM15.5993 20.5318C15.572 20.5436 15.5447 20.5514 15.5174 20.5553V17.3997C19.1869 15.6088 22.3957 14.0408 22.7549 13.8648C23.6488 13.4191 24.2032 12.5666 24.1993 11.636C24.1954 10.7132 23.6371 9.86854 22.7432 9.43059C22.0873 9.10995 18.9995 7.60449 15.5134 5.90744V2.74013C15.5447 2.74404 15.5798 2.75577 15.6228 2.77532C16.3684 3.13506 30.6209 10.0797 33.8337 11.6477C30.8083 13.1375 16.6338 20.047 15.5993 20.5318Z" class="colorfff svgShape"></path></svg></g></svg>